<svg width="18" height="14" viewBox="0 0 18 14" xmlns="http://www.w3.org/2000/svg"><title>Watch Cooking Light on Youtube</title><path d="M17.28 3.477s-.168-1.24-.678-1.786C15.955.976 15.23.97 14.897.93 12.515.746 8.942.746 8.942.746h-.008S5.362.747 2.98.93c-.333.04-1.058.045-1.706.76-.51.547-.676 1.787-.676 1.787S.428 4.933.428 6.39v1.364c0 1.456.17 2.912.17 2.912s.166 1.24.676 1.785c.648.718 1.498.695 1.877.77 1.363.14 5.788.18 5.788.18s3.577-.004 5.96-.186c.33-.042 1.057-.046 1.704-.763.51-.544.677-1.784.677-1.784s.17-1.456.17-2.912V6.39c0-1.457-.17-2.913-.17-2.913m-10.1 5.93V4.354l4.6 2.536-4.6 2.518" fill-rule="evenodd"/></svg>