<?xml version="1.0" encoding="UTF-8" standalone="no"?>
<svg width="165px" height="34px" viewBox="0 0 165 34" version="1.1" xmlns="http://www.w3.org/2000/svg" xmlns:xlink="http://www.w3.org/1999/xlink">
    <!-- Generator: Sketch 3.7.2 (28276) - http://www.bohemiancoding.com/sketch -->
    <title>logo</title>
    <desc>Created with Sketch.</desc>
    <defs></defs>
    <g id="Symbols" stroke="none" stroke-width="1" fill="none" fill-rule="evenodd">
        <g id="brand-bar" transform="translate(-105.000000, -8.000000)" fill="#630A5D">
            <g id="logo">
                <g transform="translate(105.000000, 8.000000)">
                    <path d="M131.331569,33.9884509 C122.520802,33.9884509 117.750101,28.4502947 117.750101,16.4933098 C117.750101,4.48032025 123.523512,0.0832580605 131.229976,0.0832580605 C140.335084,0.0832580605 142.300145,6.28646902 142.655025,10.5603211 L138.240596,10.5603211 C137.883628,7.5584738 136.36669,3.94897648 131.331569,3.94897648 C125.979143,3.94897648 122.266123,7.23854745 122.266123,16.4261042 C122.266123,26.0441965 125.878941,30.1570353 131.365665,30.1570353 C136.424445,30.1570353 137.883628,26.9500711 138.274692,23.1046544 L142.655025,23.1046544 C142.259786,28.5161001 139.692821,33.9884509 131.331569,33.9884509" id="Fill-1"></path>
                    <polygon id="Fill-3" points="112.459535 33.2083766 97.5295235 7.03392059 97.5295235 33.2083766 93.3850813 33.2083766 93.3850813 0.727801152 98.9448685 0.727801152 112.392039 24.2924422 112.392039 0.727801152 116.46968 0.727801152 116.46968 33.2083766"></polygon>
                    <polygon id="Fill-5" points="70.8727443 33.2083766 70.8727443 0.727801152 91.8684214 0.727801152 91.8684214 4.55851669 75.1862763 4.55851669 75.1862763 14.1885099 91.1941494 14.1885099 91.1941494 18.1200338 75.1862763 18.1200338 75.1862763 29.376961 91.8684214 29.376961 91.8684214 33.2083766"></polygon>
                    <path d="M34.0378665,33.9884509 C24.6439831,33.9884509 21.9051442,28.9361347 21.7708465,23.5799935 L26.2527726,23.5799935 C26.3877662,27.9882566 28.4975628,30.2249409 34.2062605,30.2249409 C38.0626236,30.2249409 40.7778038,28.198974 40.7778038,24.4613661 C40.7778038,20.6404514 37.1628983,19.6638709 33.1277035,18.7313941 C27.9248839,17.5286951 21.8717438,16.1278797 21.8717438,8.83047858 C21.8717438,2.67067119 27.316021,0.0832580605 32.8250117,0.0832580605 C42.1994115,0.0832580605 43.7093912,5.30638829 43.9118816,8.42374507 L39.4974523,8.42374507 C39.3290582,6.76390835 37.9700764,3.84676806 32.7909154,3.84676806 C29.5406318,3.84676806 26.4218625,5.42819833 26.4218625,8.52595349 C26.4218625,12.9314164 30.6317139,13.5719691 35.0823271,14.662659 C40.0409058,15.8786591 45.2597299,17.406885 45.2597299,24.3255549 C45.2597299,30.8927959 40.1278862,33.9884509 34.0378665,33.9884509" id="Fill-7"></path>
                    <polygon id="Fill-9" points="0 33.2083766 0 0.727801152 20.9956772 0.727801152 20.9956772 4.55851669 4.31353206 4.55851669 4.31353206 14.1885099 20.3214051 14.1885099 20.3214051 18.1200338 4.31353206 18.1200338 4.31353206 29.376961 20.9956772 29.376961 20.9956772 33.2083766"></polygon>
                    <polygon id="Fill-11" points="144.0035 33.2083766 144.0035 0.727801152 164.998481 0.727801152 164.998481 4.55851669 148.316336 4.55851669 148.316336 14.1885099 164.324209 14.1885099 164.324209 18.1200338 148.316336 18.1200338 148.316336 29.376961 164.998481 29.376961 164.998481 33.2083766"></polygon>
                    <path d="M58.4032339,33.9884509 C49.0093506,33.9884509 46.2712076,28.9361347 46.136214,23.5799935 L50.6181401,23.5799935 C50.7531337,27.9882566 52.8629303,30.2249409 58.571628,30.2249409 C62.4286869,30.2249409 65.1438671,28.198974 65.1438671,24.4613661 C65.1438671,20.6404514 61.5282658,19.6638709 57.493071,18.7313941 C52.2909472,17.5286951 46.2371113,16.1278797 46.2371113,8.83047858 C46.2371113,2.67067119 51.6813885,0.0832580605 57.1896834,0.0832580605 C66.564779,0.0832580605 68.0754546,5.30638829 68.2772491,8.42374507 L63.8628198,8.42374507 C63.6944257,6.76390835 62.3354439,3.84676806 57.1562829,3.84676806 C53.9059993,3.84676806 50.78723,5.42819833 50.78723,8.52595349 C50.78723,12.9314164 54.9977773,13.5719691 59.4476946,14.662659 C64.4062733,15.8786591 69.6250974,17.406885 69.6250974,24.3255549 C69.6250974,30.8927959 64.4939496,33.9884509 58.4032339,33.9884509" id="Fill-14"></path>
                </g>
            </g>
        </g>
    </g>
</svg>