<svg xmlns="http://www.w3.org/2000/svg"><path fill-rule="evenodd" d="M.176 6.563c0 1.74.7 3.286 2.204 3.862.246.095.467.004.54-.252.05-.177.166-.623.22-.81.07-.254.044-.343-.155-.565-.434-.48-.71-1.102-.71-1.983 0-2.555 2.033-4.84 5.297-4.84 2.89 0 4.48 1.657 4.48 3.872 0 2.915-1.374 5.377-3.413 5.377-1.128 0-1.97-.875-1.7-1.948.323-1.28.95-2.663.95-3.588 0-.828-.476-1.517-1.454-1.517-1.15 0-2.073 1.12-2.073 2.62 0 .953.342 1.6.342 1.6s-1.18 4.686-1.385 5.507c-.41 1.635-.062 3.64-.032 3.84.017.12.182.15.257.06.106-.13 1.478-1.72 1.943-3.31.133-.45.758-2.777.758-2.777.374.67 1.467 1.258 2.63 1.258 3.46 0 5.807-2.962 5.807-6.927 0-2.997-2.705-5.79-6.815-5.79C2.754.247.176 3.69.176 6.562z"/></svg>