<svg viewBox="0 0 16 13" xmlns="http://www.w3.org/2000/svg"><path d="M15.75 1.82c-.552.245-1.145.41-1.768.486.636-.382 1.124-.986 1.354-1.706-.595.354-1.254.61-1.955.748-.56-.6-1.36-.973-2.245-.973-1.7 0-3.077 1.38-3.077 3.082 0 .242.027.477.08.703C5.58 4.03 3.31 2.804 1.793.94c-.265.454-.416.984-.416 1.55 0 1.068.543 2.012 1.37 2.564-.506-.016-.98-.154-1.395-.385v.038c0 1.493 1.06 2.74 2.468 3.022-.257.07-.53.108-.81.108-.198 0-.39-.02-.58-.055.393 1.224 1.53 2.115 2.876 2.14-1.053.827-2.38 1.32-3.822 1.32-.248 0-.493-.015-.734-.043 1.362.874 2.98 1.384 4.717 1.384 5.66 0 8.756-4.696 8.756-8.77 0-.133-.003-.266-.01-.398.603-.435 1.124-.978 1.537-1.596" fill-rule="evenodd"/></svg>