<?xml version="1.0" encoding="UTF-8" standalone="no"?>
<svg width="17px" height="30px" viewBox="0 0 17 30" version="1.1" xmlns="http://www.w3.org/2000/svg" xmlns:xlink="http://www.w3.org/1999/xlink">
    <!-- Generator: Sketch 3.8.1 (29687) - http://www.bohemiancoding.com/sketch -->
    <title>Shape</title>
    <desc>Created with Sketch.</desc>
    <defs></defs>
    <g id="desktop" stroke="none" stroke-width="1" fill="none" fill-rule="evenodd">
        <g id="Desktop-Portrait" transform="translate(-105.000000, -971.000000)" fill="#FFFFFF">
            <g id="main-col" transform="translate(90.000000, 340.000000)">
                <g id="Group-4" transform="translate(0.000000, 346.000000)">
                    <g id="gallery">
                        <g id="Bitmap">
                            <g id="left-arrow" transform="translate(0.000000, 263.000000)">
                                <path d="M16.3017098,51.8099995 C16.6348642,51.8099995 16.9673679,51.6831145 17.2217885,51.4286938 L30.8251599,37.8246718 C31.3333505,37.3164812 31.3333505,36.4927049 30.8251599,35.9845143 L17.2217885,22.381143 C16.7135979,21.8729523 15.8898216,21.8729523 15.381631,22.381143 C14.8734404,22.8893336 14.8734404,23.7131099 15.381631,24.2213005 L28.0649235,36.9045931 L15.381631,49.5878856 C14.8727897,50.0967269 14.8727897,50.9198525 15.381631,51.4286938 C15.6360516,51.6831145 15.9685554,51.8099995 16.3017098,51.8099995 Z" id="Shape" transform="translate(23.103151, 36.905000) rotate(-180.000000) translate(-23.103151, -36.905000) "></path>
                            </g>
                        </g>
                    </g>
                </g>
            </g>
        </g>
    </g>
</svg>