<svg width="26" height="22" viewBox="0 0 26 22" xmlns="http://www.w3.org/2000/svg"><title>Speech Bubble</title><g fill-rule="evenodd"><path d="M0 9c0-4.97 4.034-9 9.002-9h7.996C21.97 0 26 4.028 26 9c0 4.97-4.034 9-9.002 9H9.002C4.03 18 0 13.972 0 9zm6 2c1.105 0 2-.895 2-2s-.895-2-2-2-2 .895-2 2 .895 2 2 2zm7 0c1.105 0 2-.895 2-2s-.895-2-2-2-2 .895-2 2 .895 2 2 2zm7 0c1.105 0 2-.895 2-2s-.895-2-2-2-2 .895-2 2 .895 2 2 2z"/><path d="M14.556 12c.444 4-8.66 10-8.66 10s1.104-6 0-10h8.66z"/></g></svg>