<svg viewBox="0 0 134 27" xmlns="http://www.w3.org/2000/svg"><title>logo</title><g fill-rule="evenodd"><path d="M106.565 26.99c-7.15 0-11.02-4.397-11.02-13.892 0-9.54 4.684-13.032 10.937-13.032 7.39 0 8.983 4.926 9.27 8.32h-3.58c-.29-2.384-1.522-5.25-5.607-5.25-4.343 0-7.356 2.612-7.356 9.908 0 7.638 2.93 10.904 7.383 10.904 4.104 0 5.288-2.546 5.606-5.6h3.553c-.32 4.297-2.404 8.643-9.188 8.643M91.252 26.37L79.137 5.587V26.37h-3.363V.58h4.512l10.91 18.713V.58h3.31V26.37M57.507 26.37V.58h17.037V3.62H61.008v7.647h12.99v3.122h-12.99v8.94h13.536v3.04M27.62 26.99c-7.623 0-9.846-4.01-9.955-8.265h3.637c.11 3.5 1.82 5.277 6.454 5.277 3.13 0 5.332-1.61 5.332-4.577 0-3.034-2.933-3.81-6.208-4.55-4.22-.955-9.133-2.068-9.133-7.863 0-4.89 4.418-6.946 8.888-6.946 7.606 0 8.832 4.148 8.996 6.623h-3.58c-.138-1.32-1.24-3.635-5.443-3.635-2.637 0-5.168 1.256-5.168 3.716 0 3.5 3.415 4.008 7.026 4.874 4.024.966 8.26 2.18 8.26 7.673 0 5.216-4.165 7.674-9.107 7.674M0 26.37V.58h17.036V3.62H3.5v7.647h12.99v3.122H3.5v8.94h13.536v3.04M116.847 26.37V.58h17.036V3.62h-13.536v7.647h12.99v3.122h-12.99v8.94h13.536v3.04M47.39 26.99c-7.623 0-9.845-4.01-9.954-8.265h3.637c.11 3.5 1.82 5.277 6.453 5.277 3.13 0 5.333-1.61 5.333-4.577 0-3.034-2.935-3.81-6.21-4.55-4.22-.955-9.132-2.068-9.132-7.863 0-4.89 4.417-6.946 8.887-6.946 7.607 0 8.833 4.148 8.996 6.623h-3.58c-.137-1.32-1.24-3.635-5.442-3.635-2.638 0-5.168 1.256-5.168 3.716 0 3.5 3.416 4.008 7.027 4.874 4.023.966 8.258 2.18 8.258 7.673 0 5.216-4.163 7.674-9.106 7.674"/></g></svg>