<?xml version="1.0" encoding="UTF-8" standalone="no"?>
<svg width="35px" height="32px" viewBox="0 0 35 32" version="1.1" xmlns="http://www.w3.org/2000/svg" xmlns:xlink="http://www.w3.org/1999/xlink">
    <!-- Generator: Sketch 3.7.2 (28276) - http://www.bohemiancoding.com/sketch -->
    <title>Group</title>
    <desc>Created with Sketch.</desc>
    <defs></defs>
    <g id="Page-1" stroke="none" stroke-width="1" fill="none" fill-rule="evenodd">
        <g id="Large-Screens---Scroll-Interior" transform="translate(-55.000000, -9.000000)" fill="#171A1A">
            <g id="Group" transform="translate(55.000000, 9.000000)">
                <g id="Group-2">
                    <path d="M28.0852121,1.36429412 C28.2605092,1.36429412 25.5248841,1.39063324 25.5248841,1.39063324 C25.4304532,1.41097434 25.3673254,1.45348204 25.344109,1.52702295 L25.3636734,29.4412774 C25.3636734,29.5641064 25.364456,29.7377881 25.3652385,29.8353211 C25.3654994,29.8791327 25.4174103,29.9078189 25.4174103,29.9078189 C25.4174103,29.9078189 27.3334174,29.9555422 28.1666,29.7810781 C30.5732824,29.2782878 31.8248824,27.311981 32.4945066,25.4687639 C32.8803167,24.3635639 33.127089,23.2385444 33.252562,22.0467643 L33.3709919,20.941825 C33.4025558,20.888886 34.2299995,21.0688265 34.2299995,21.0688265 L34.2062614,30.6729573 L19.1119339,30.6729573 C18.9389846,30.6001988 19.0180248,30.0869771 19.0180248,29.953456 L19.1440195,29.9138169 L21.3407106,29.9138169 C21.3957518,29.8939973 21.4742702,29.8809582 21.4904435,29.8212388 L21.5141816,29.6013984 L21.4993127,1.54606014 C21.4755745,1.49286033 21.4291417,1.45035264 21.3579273,1.43027232 L19.1612362,1.38046269 L19.154193,0.552736197 C19.1539322,0.552736197 25.0034275,0.434079753 28.0852121,0.552736197 C28.2250324,0.552736197 28.0852121,1.36429412 28.0852121,1.36429412 Z M13.51319,2.16241608 C13.7259893,2.3819957 13.8597711,2.63495559 14.0642253,2.84801562 C14.1505446,2.86157636 14.213915,2.78829622 14.260856,2.72831604 L16.045136,0.565900147 C16.1392788,0.445679003 16.3964112,0.452720154 16.5380166,0.472539692 C16.6089497,0.499400382 16.6407653,0.559119779 16.648328,0.618839176 L16.6407653,6.09059633 L16.58574,9.39889446 C16.5539244,9.45157271 16.1906531,9.51233524 16.1118965,9.50529409 C15.9937617,9.51885482 15.9155266,9.43853354 15.8837111,9.35873382 C15.1123138,7.18197484 14.420977,5.19063284 13.0904601,3.22067509 C12.2327436,2.03541457 10.879017,0.753142624 8.97399427,0.965941872 C7.96658802,1.01940247 7.13990467,1.66484137 6.62016336,2.37547611 C5.54990832,3.79335542 5.29147198,5.04329023 4.91907329,6.90710914 C4.61004497,8.45538015 4.58683525,9.22416959 4.44809848,10.7901739 C4.33856946,12.0234185 4.31562052,12.722318 4.27493831,13.9581705 C4.22069536,15.6115372 4.18914057,16.5459241 4.25876974,18.1982477 C4.30258135,19.2382519 4.44809848,20.8611069 4.44809848,20.8611069 C4.70001524,23.5503053 4.92037721,25.94534 6.28975081,28.2423201 C6.80975289,29.3008399 7.96137236,30.5893707 9.42280249,30.6120588 C10.4294264,30.6277058 11.0013244,30.395087 11.7841961,29.7598187 C13.350722,28.4890212 13.9174043,27.1115633 14.6337763,25.5067023 C15.1767273,24.0953426 15.3900481,22.638085 15.791133,21.1803058 C15.8701503,21.0733846 16.2313353,21.1002453 16.3575545,21.1067649 C16.4128406,21.1200649 16.4678659,21.1336256 16.4994207,21.1803058 L16.5228912,21.4335265 L16.5072442,31.564179 C16.4913364,31.6238984 16.3205232,31.6369375 16.2654979,31.6572786 C16.060783,31.7237784 15.9822872,31.5506182 15.8719758,31.4577794 C15.2419231,30.5593806 14.6022215,29.7712931 13.9486983,28.8856727 L13.8621182,28.8856727 C13.3241221,29.6706308 12.6844204,30.2493091 11.789151,30.8092111 C11.1457984,31.2115998 10.1955037,31.4481304 9.48460816,31.4523029 C9.16462693,31.4538676 8.84986138,31.429354 8.54865656,31.3915404 C7.61426966,31.2728839 5.85476411,30.7620093 4.69845054,29.6395975 C1.92006427,27.1699788 1.19612957,25.0526784 0.479757586,21.8578211 C-0.134126522,19.1819227 -0.109612883,14.8656967 0.275824972,12.0961771 C0.638053105,9.30709871 1.18022178,7.10999862 2.52195234,4.65993864 C3.2951751,3.24753578 4.1839249,2.05445176 5.81356033,0.989673161 C6.84469787,0.263912978 7.95015867,1.83665399e-07 9.39046535,1.83665399e-07 C11.2816665,-0.000521383121 12.5686326,1.10989431 13.51319,2.16241608 Z" id="Combined-Shape"></path>
                </g>
            </g>
        </g>
    </g>
</svg>