<svg width="23" height="24" viewBox="0 0 23 24" xmlns="http://www.w3.org/2000/svg"><title>Follow Cooking Light on Snapchat</title><path d="M11.72.498h-.056l-.396.005c-.51 0-1.532.076-2.63.587-.626.292-1.19.687-1.676 1.174-.58.58-1.05 1.295-1.402 2.126-.514 1.216-.392 3.265-.294 4.91v.004l.032.54c-.075.036-.197.075-.378.075-.29 0-.634-.1-1.024-.292-.115-.056-.246-.085-.39-.085-.232 0-.477.072-.69.204-.266.165-.438.4-.485.66-.03.17-.03.51.328.853.196.19.485.363.857.52.097.04.213.078.336.12.427.142 1.07.358 1.24.775.085.212.048.49-.11.827l-.01.028c-.04.096-.407.972-1.16 1.896-.426.526-.896.965-1.396 1.306-.61.416-1.27.688-1.963.808-.27.047-.464.303-.45.593.005.084.024.167.056.248v.002c.11.272.366.502.78.705.506.248 1.262.457 2.25.62.05.1.1.352.136.524.038.184.077.372.132.57.06.218.217.477.617.477.153 0 .328-.037.53-.078.296-.062.7-.146 1.207-.146.28 0 .57.026.863.077.563.1 1.05.463 1.61.882.824.614 1.756 1.31 3.18 1.31.037 0 .076-.003.115-.005.047.002.105.004.167.004 1.423 0 2.354-.694 3.176-1.308.564-.42 1.05-.782 1.612-.88.292-.052.583-.078.863-.078.483 0 .866.065 1.207.135.223.046.396.068.53.068h.025c.293 0 .51-.17.59-.467.055-.194.094-.378.133-.564.033-.16.087-.42.137-.52.987-.164 1.743-.373 2.25-.62.412-.203.667-.433.777-.703.033-.08.053-.165.057-.25.015-.29-.18-.546-.45-.593-3.076-.535-4.46-3.87-4.52-4.01-.002-.01-.007-.02-.01-.028-.158-.337-.194-.615-.11-.828.17-.417.813-.632 1.24-.775.122-.042.24-.08.335-.122.42-.175.72-.364.918-.58.236-.257.282-.503.28-.664-.008-.39-.29-.736-.74-.905-.15-.067-.324-.102-.5-.102-.12 0-.297.017-.465.1-.36.178-.682.275-.96.29-.146-.01-.25-.043-.316-.075l.027-.47.003-.07c.1-1.648.22-3.7-.293-4.916-.352-.833-.826-1.55-1.407-2.132-.487-.487-1.054-.882-1.683-1.174C13.254.575 12.232.5 11.72.5" fill-rule="evenodd"/></svg>