<svg width="144" height="38" viewBox="0 0 144 38" xmlns="http://www.w3.org/2000/svg"><title>Cooking Light</title><g fill-rule="evenodd"><path d="M140.683 3.247V9.87c.022.09.134.084.216.096l2.55-.025c.15.077.09.615.082.74l-.075.058-2.685-.006c-.12.076-.082.215-.09.335v6.964l-.015 3.43.038 5.226c0 1.037.368 1.517 1.07 1.517.962 0 1.274-.745 1.397-2.835.002-.054.55-.084.64-.053.128.046.105.24.096.405-.113 1.972-.975 3.97-3.287 3.97-2.008 0-2.98-1.65-2.98-4.018V10.796l-.068-.05c-.59-.033-1.22.005-1.795-.033-.12-.063-.045-.5-.067-.608.022-.07.12-.064.187-.07 1.69-.038 2.563-1.6 3.057-2.738.515-1.277.69-2.747.943-4.12.104-.075.778-.12.786.07M98.735.723c.133 0 0 .77 0 .77.167 0-2.43.026-2.43.026-.09.018-.15.06-.173.128l.02 26.52v.373c0 .043.05.07.05.07s1.82.046 2.61-.12c2.286-.478 3.475-2.346 4.11-4.097.367-1.05.602-2.12.72-3.25l.113-1.05c.03-.05.816.12.816.12l-.006 3.042-.015 2.61c-.01.987-.017 1.7-.024 2.695l.09.063h1.18c.114-.026.106-.126.114-.203l.015-17.61c-.038-.07-.106-.095-.18-.133l-1.688-.012c-.045-.012-.077-.646.036-.716l4.73.012c.097.012.082.1.09.164l-.005 18.395c.007.052.075.077.135.07l2.124.007c.134.02.15.722.022.74H90.212c-.164-.07-.09-.557-.09-.683l.12-.038h2.087c.052-.02.127-.03.142-.088l.023-.21-.015-26.65c-.022-.052-.066-.092-.134-.11l-2.086-.05-.007-.785s5.555-.113 8.482 0M59.693 3.977c.322.536.363 1.204.215 1.81-.19.552-.71 1.225-1.608 1.35-.586.07-1.105-.08-1.492-.376-.783-.62-.957-1.528-.7-2.345.188-.553.692-1.21 1.582-1.363.915-.16 1.715.4 2.003.925M108.933 3.977c.32.536.363 1.204.214 1.81-.19.552-.71 1.225-1.607 1.35-.586.07-1.106-.08-1.493-.376-.782-.62-.956-1.528-.7-2.345.19-.553.692-1.21 1.583-1.363.915-.16 1.714.4 2.003.925M12.963 2.213c.202.21.33.45.524.65.082.014.142-.055.186-.112L15.37.697c.088-.114.332-.107.467-.088.067.025.097.082.105.14l-.008 5.197-.052 3.143c-.03.05-.375.108-.45.1-.112.014-.187-.063-.217-.138-.733-2.068-1.39-3.96-2.653-5.832-.815-1.126-2.1-2.344-3.91-2.142-.958.05-1.743.664-2.237 1.34C5.398 3.762 5.153 4.95 4.8 6.72c-.295 1.47-.317 2.202-.45 3.69-.103 1.17-.124 1.835-.163 3.01-.052 1.57-.082 2.457-.015 4.027.04.988.18 2.53.18 2.53.24 2.555.448 4.83 1.75 7.012.493 1.005 1.587 2.23 2.975 2.25.957.015 1.5-.206 2.244-.81 1.49-1.207 2.027-2.515 2.708-4.04.516-1.34.718-2.725 1.1-4.11.074-.1.417-.076.537-.07.053.013.105.026.135.07l.022.24-.014 9.625c-.016.057-.178.07-.23.088-.195.063-.27-.1-.374-.19-.598-.853-1.206-1.6-1.827-2.443h-.082c-.51.746-1.12 1.296-1.97 1.828-.61.382-1.514.607-2.19.61-.303.002-.602-.02-.888-.057-.888-.112-2.56-.597-3.658-1.664C1.95 25.97 1.26 23.96.58 20.924 0 18.382.023 14.28.39 11.65c.344-2.65.86-4.737 2.134-7.064C3.256 3.244 4.1 2.11 5.65 1.1 6.627.41 7.677.16 9.046.16c1.796-.002 3.02 1.053 3.916 2.053M26.434 18.814l-.01.973c0 5.8-.372 9.244-3.272 9.244-2.71 0-3.294-2.022-3.294-9.153 0-.225-.012-.873-.012-.873 0-5.46.426-8.796 3.39-8.796 2.93 0 3.198 2.8 3.198 8.606m3.23.964c0-9.493-4.882-10.254-6.463-10.254-1.728 0-6.642 1.155-6.642 10.297 0 8.65 4.416 9.87 6.61 9.87 2.13 0 6.495-1.388 6.495-9.912M40.253 18.814l-.01.973c0 5.8-.372 9.244-3.27 9.244-2.712 0-3.296-2.022-3.296-9.153 0-.225-.01-.873-.01-.873 0-5.46.424-8.796 3.388-8.796 2.93 0 3.198 2.8 3.198 8.606m3.23.964c0-9.493-4.882-10.254-6.463-10.254-1.728 0-6.643 1.155-6.643 10.297 0 8.65 4.416 9.87 6.61 9.87 2.13 0 6.496-1.388 6.496-9.912"/><path d="M56.474 10.69c-.703-.1-1.143.185-1.666.487-1.13.854-1.78 1.808-2.5 2.838l-2.12 3.2c-.04.07 0 .146.03.21l4.96 9.84.656 1.218c.078.14.402.1.58.1.067 0 .127-.023.15-.074l-.046-11.826v-2.82l.008-3.098-.052-.075zM47.694.87l.03.417.015 15.672.022 2.302c.007.025.045.044.075.025l3.845-6.118c.397-.735.952-1.544.428-2.245-.308-.41-1.432-.29-1.432-.29s-.11-.545.053-.71h4.263l4.393.006c-.082 18.68-.03 18.472-.005 18.604l.106.064 2.888-.007c.12-.056.12-.175.112-.283l-.02-17.445c.024-.076-.002-.165-.09-.183-.533-.014-1.184 0-1.7-.014-.045-.013-.097-.02-.12-.063V9.97l.097-.032 4.465.012s.257-.027.254.153c.002.105.015 1.938.015 1.938.023.02.07.055.082.02.193-.48.378-.814.742-1.254.48-.582 1.414-1.26 2.85-1.26 3.815 0 4.484 2.42 4.484 6.5l.052 6.697c.017 2.125.038 5.34.038 5.34l.03.42c.09.063 1.734.037 1.734.037.172.057.082.76.082.76l-6.804-.006c-.067-.114-.03-.544-.03-.664l.067-.05 1.735.005c.082-.012.112-.088.134-.146l-.045-15.176c0-1.8-.58-2.767-1.966-2.767-.8 0-1.505.376-1.894.835-1.36 1.606-1.308 3.854-1.263 6.186l.022 5.054h-.008c.015.436.015 3.98.015 3.98v.1l.017 1.87.065.057h1.757c.052.004.104.05.097.1 0 .107-.068.624-.068.624l-16.573.027-.02-.714c.59-.013 1.167.006 1.765-.02.045-.005.097-.05.075-.1L48.3 20.15c-.022-.04-.09-.026-.127-.02-.18.304-.418.59-.418.955l.007 7.392c0 .057.06.107.12.12.523.02 1.563.026 1.563.026l-.003.71h-6.518l-.01-.71s1.37.006 1.812-.044l.053-.046L44.74 1.63c.014-.063-.045-.113-.105-.14-.598-.03-1.167.008-1.743-.005l.008-.006c-.097-.008-.03-.103-.06-.147.008-.075-.06-.527.083-.565 1.435.007 3.102.013 4.538-.006.09.012.202.012.23.107z"/><path d="M83.3 18.57c0 1.093-.035 2.017-.115 2.79-.24 2.314-.895 3.254-2.3 3.254-.75 0-1.348-.227-1.756-1.078-.41-.85-.63-2.324-.63-4.82l.002-1.87c0-5.464.805-6.64 2.417-6.64 1.756 0 2.373 1.162 2.373 6.478 0 .83.006 1.58.006 1.885m-3.786 10.588c1.316.164 2.454.205 3.754.395 3.385.493 3.983 1.9 3.983 3.413 0 .676-.18 1.29-.596 1.92-.14.208-.298.41-.48.605-.368.388-.832.738-1.42 1.028-.294.145-.62.276-.978.39-1.517.48-4.095.573-5.633-.274-1.656-.912-1.963-2.027-1.89-3.67.038-1.67 1.332-3.205 3.26-3.806M87.63 8.313c.586-.456.662-1.123.557-1.79-.105-.674-.923-1.178-1.625-1.178-.888 0-1.418.162-1.995.586-1.218 1.077-1.54 2.51-1.564 4-.014.046-.023.145-.103.103-.42-.222-.6-.32-1.273-.445-1.698-.273-3.202.516-4.196 1.672-1.78 2.106-2.288 4.527-2.05 7.284.233 2.074.824 4.034 2.543 5.578.046.025.054.082 0 .107-.403.088-.79.216-1.143.41-.863.473-1.197 1-1.197 1.72 0 1.507 1.184 2.206 2.425 2.637.023.032-.007.063-.037.082-.553.24-1.107.492-1.63.803-1.413.91-2.245 2.012-2.253 3.5 0 0 .008.422.06.6.27 1.73 2.016 3.046 3.893 3.64 1.13.316 2.44.433 3.876.34 1.412-.088 2.464-.413 3.52-.97 1.518-.802 2.4-1.855 2.964-3.253.25-.623.347-1.292.347-1.96 0-2.155-1.006-4.012-3.735-4.692-.754-.188-1.45-.276-2.363-.38l-3.546-.36c-.508-.1-1.04-.165-1.42-.53-.18-.173-.254-.406-.172-.634.135-.31.54-.417.905-.443.366-.055.613.134.89.255.605.284 1.176.372 1.924.31 2.37-.286 3.955-2.417 4.553-4.162.39-1.246.666-2.53.63-3.92-.008-1.922-.46-3.56-1.402-5.155-.254-.443-.622-.998-1.15-1.495-.036-1.2.146-2.336.79-3.31.127-.17.314-.464.605-.423.093.013.16.073.157.133-.018.364.013.618.09.89.09.324.464.69.926.744.456.066.817.003 1.202-.294M122.15 34.795c-.48.796-1.44 1.66-2.88 2.113-.757.24-1.78.383-2.807.36-1.026-.022-2.055-.21-2.824-.634-1.657-.912-1.965-2.027-1.89-3.67.037-1.67 1.33-3.206 3.26-3.806 1.316.164 2.453.205 3.754.395.776.138 1.61.28 2.34.64.91.443 1.348 1.062 1.54 1.936.233 1.043.046 1.77-.494 2.665m-8.154-16.078l.002-1.872c0-5.464.804-6.64 2.416-6.64 1.757 0 2.375 1.162 2.375 6.48 0 .827.004 1.578.004 1.884 0 1.092-.034 2.017-.114 2.79-.24 2.314-.894 3.253-2.3 3.253-.75 0-1.347-.226-1.755-1.077-.41-.85-.63-2.324-.63-4.82m22.91 9.926l-1.487-.006c-.112 0-.232-.007-.284-.096l-.023-5.456-.006-3.618-.007-4.15c0-4.947-2.184-5.774-4.485-5.774-1.247 0-2.158.485-2.754 1.13-.375.41-.556.752-.8 1.248-.014.03-.06-.006-.082-.024V3.292l.007.006.007-2.385c-.007-.062-.015-.145-.097-.158l-4.42-.03-.32.012c-.113.063-.068.49-.068.59.022.05.075.088.135.094l1.697.008c.045.012.082.044.098.082l-.024 26.987c-.044.17-.657.113-.695.082l-.284-.272c-.68-.696-1.53-1.02-2.504-1.22-.763-.16-1.42-.264-2.363-.38l-3.546-.36c-.51-.102-1.04-.166-1.42-.532-.18-.17-.255-.405-.173-.633.135-.31.54-.394.905-.42.365-.056.612.134.89.254.604.284 1.175.35 1.923.286 2.37-.285 3.955-2.416 4.553-4.16.39-1.247.666-2.53.63-3.922-.008-1.92-.46-3.56-1.4-5.153-.255-.442-.757-1.133-1.284-1.63-.036-1.172.197-2.36.683-3.174.108-.18.315-.465.605-.424.094.013.16.072.157.133-.017.363.014.617.09.89.092.323.464.69.926.743.456.066.817.004 1.202-.294.587-.456.66-1.123.558-1.79-.106-.673-.923-1.178-1.625-1.178-.89 0-1.287.163-1.863.587-1.218 1.076-1.54 2.442-1.563 3.933-.016.045-.025.144-.106.1-.42-.22-.586-.298-1.166-.376-1.706-.232-3.202.516-4.196 1.673-1.78 2.105-2.288 4.526-2.05 7.283.233 2.074.823 4.034 2.543 5.577.045.025.052.083 0 .108-.404.09-.79.217-1.144.41-.863.474-1.197 1-1.197 1.72 0 1.508 1.184 2.207 2.426 2.638.022.032-.008.063-.038.082-.553.24-1.107.493-1.63.804-1.413.91-2.245 2.012-2.253 3.498 0 0 .01.424.06.6.27 1.733 2.097 3.003 3.974 3.598 1.13.316 2.2.44 3.638.386 1.575-.062 2.623-.393 3.68-.95 1.517-.8 2.4-1.877 2.962-3.275.567-1.408.41-3.055-.254-4.378.03-.05 5.16-.03 5.16-.03l.06-.064c.008-.127.067-.57-.067-.646l-1.727-.006c-.052-.006-.112-.032-.12-.082l-.008-7.992.03-4.208c.058-2.007.078-3.502 1.274-4.95.355-.442 1.034-.817 1.82-.817 1.73 0 2.05 1.59 2.05 3.662l-.014 2.54-.03 4.81v6.815c.023.095-.02.184-.105.227h-1.77l-.053.04c-.016.12-.045.568.03.675l6.707.014.067-.025c.022-.12.097-.595-.038-.683"/></g></svg>