<svg xmlns="http://www.w3.org/2000/svg" viewBox="0 0 389 501.8"><path d="M162.6 327.7c-3.3 12.9-6.1 25.2-9.5 37.3-5.8 20.8-10.8 42-18.2 62.1-9.8 26.6-26 49.8-43.3 72.1-1.1 1.4-3.5 2.7-5.2 2.6-1-.1-2.5-2.9-2.7-4.6-4.1-29.6-6.5-59.4-1.9-89.1 2.9-18.9 7.7-37.5 12-56.1 8.9-38.2 18.1-76.4 26.9-114.6.7-2.8.4-6.3-.6-9.1-9.5-27.6-11-55.2 1.6-82.2 8-17.3 20.5-29.9 40.3-33 23.3-3.7 42.1 11.3 44.3 35 1.4 14.7-1.7 28.8-5.6 42.8-6.1 21.6-12.5 43.1-18.7 64.7-9.4 32.9 15.6 59.5 47.4 58.1 21.9-1 38.5-11.8 52-28 16.3-19.5 25.2-42.5 31-66.9 4.9-20.5 6.9-41.4 6.3-62.4-1.3-52.2-31.3-90.6-82.1-102.5-44.5-10.4-87-4.8-124.7 22.5-32.6 23.5-50.4 56.2-54.5 96-1.1 11-.8 22.3.5 33.3 1.6 14.7 7.9 27.8 17.7 39 4.6 5.2 5.6 10.6 3.7 17-2 6.5-3.4 13.2-5.1 19.8-2.6 9.8-7.7 12.2-17.2 8-19.6-8.8-33.7-23.3-42.4-42.6-19.5-43.3-18.9-87.1-.3-130.3 24.1-55.8 67.1-90.7 125-106.9C186.8-3.6 234.6-4.2 281 14.4c55.1 22.1 91.1 61.7 104.7 120.2 4.9 21.1 3.8 42.4 1.5 63.6-3.4 30.2-11.3 59.1-26.3 85.8-21.4 38.2-51.9 65.3-95.4 75.4-25.1 5.9-49.9 5.7-73.5-6.4-10.8-5.5-20.3-12.7-27.1-23-.6-.6-1.2-1.1-2.3-2.3z"/></svg>