<svg width="21" height="17" viewBox="0 0 21 17" xmlns="http://www.w3.org/2000/svg"><title>Watch Cooking Light on YouTube</title><path d="M20.78 3.678s-.206-1.664-.835-2.397C19.147.32 18.252.315 17.842.26 14.905.014 10.5.014 10.5.014h-.01s-4.406 0-7.343.244c-.41.056-1.305.06-2.103 1.023C.414 2.015.21 3.68.21 3.68S0 5.632 0 7.588v1.83c0 1.955.21 3.91.21 3.91s.205 1.664.834 2.397c.798.962 1.847.932 2.314 1.032 1.68.186 7.136.243 7.136.243s4.41-.008 7.348-.252c.41-.056 1.305-.06 2.103-1.023.63-.733.834-2.397.834-2.397s.21-1.955.21-3.91V7.59c0-1.956-.21-3.91-.21-3.91m-12.452 7.96V4.855l5.67 3.404-5.67 3.38" fill-rule="evenodd"/>

</svg>