<?xml version="1.0" encoding="UTF-8" standalone="no"?>
<svg width="20px" height="17px" viewBox="0 0 20 17" version="1.1" xmlns="http://www.w3.org/2000/svg" xmlns:xlink="http://www.w3.org/1999/xlink">
    <!-- Generator: Sketch 3.7.2 (28276) - http://www.bohemiancoding.com/sketch -->
    <title>Search Icon</title>
    <desc>Created with Sketch.</desc>
    <defs></defs>
    <g id="Navigation" stroke="none" stroke-width="1" fill="none" fill-rule="evenodd">
        <g id="condensed-nav" transform="translate(-250.000000, -93.000000)" fill="#B70F7C">
            <g id="side-nav" transform="translate(0.000000, -1.000000)">
                <g id="Group" transform="translate(0.000000, 79.000000)">
                    <g id="Search-Icon" transform="translate(260.000000, 24.000000) scale(-1, 1) translate(-260.000000, -24.000000) translate(250.000000, 15.000000)">
                        <path d="M19.0286906,14.2522715 L16.1937055,12.1371408 C16.8859223,10.6755343 17.1705901,9.00133047 16.9203631,7.28099303 C16.2443037,2.6331906 11.9285782,-0.586383094 7.28098839,0.0896763574 C2.63339856,0.765523212 -0.586387725,5.08124864 0.0896717261,9.72926367 C0.765731178,14.3768535 5.08145661,17.5962146 9.72904644,16.9201551 C11.5739659,16.6518573 13.1924692,15.8084838 14.4329746,14.6002933 L17.2188497,16.678432 C17.8861927,17.1759097 18.9411006,17.1223352 19.4387909,16.4554174 L19.4392161,16.4549922 C19.9366938,15.7878619 19.6960336,14.7501744 19.0286906,14.2522715 L19.0286906,14.2522715 Z M9.33212726,14.1916812 C6.19142717,14.6487655 3.27501725,12.4730446 2.81793303,9.33234449 C2.361274,6.1914318 4.53699489,3.27502188 7.67769498,2.81815026 C10.8186077,2.36127863 13.7350176,4.53699952 14.1916766,7.67791221 C14.6487608,10.8183997 12.4730399,13.7352348 9.33212726,14.1916812 L9.33212726,14.1916812 Z" id="Shape" transform="translate(9.852042, 8.504918) scale(-1, 1) translate(-9.852042, -8.504918) "></path>
                    </g>
                </g>
            </g>
        </g>
    </g>
</svg>