<svg width="28" height="28" viewBox="0 0 28 28" xmlns="http://www.w3.org/2000/svg"><title>Search Icon</title><path d="M26.236 24.648l-6.14-6.14c1.496-1.847 2.396-4.2 2.396-6.764C22.492 5.81 17.682 1 11.746 1 5.81 1 1 5.81 1 11.746c0 5.934 4.81 10.746 10.746 10.746 2.67 0 5.11-.975 6.99-2.585l6.12 6.12c.388.39 1.003.386 1.384.005.384-.384.38-1-.004-1.384m-14.49-3.877c-4.985 0-9.027-4.04-9.027-9.024 0-4.986 4.04-9.027 9.026-9.027 4.984 0 9.025 4.04 9.025 9.026 0 4.984-4.04 9.025-9.024 9.025" fill-rule="evenodd"/></svg>