<svg xmlns="http://www.w3.org/2000/svg" width="25" height="25.147" viewBox="0 0 25 25.147"><g><path d="M19.906 7.927v3.268H16.64v1.597h3.266v3.268h1.67v-3.268h3.268v-1.597h-3.267V7.927M3.056 19.635c0-2.31 2.112-3.09 2.838-3.35 1.386-.456 3.168-.52 3.467-.52.33 0 .494 0 .758.032 2.51 1.757 3.6 2.632 3.6 4.292 0 2.013-1.685 3.51-4.853 3.51-3.53.002-5.81-1.657-5.81-3.965M4.71 4.822c0-.846.164-1.804.725-2.487.53-.65 1.453-.993 2.312-.993 2.738 0 4.158 3.642 4.158 5.984 0 .585-.065 1.543-.825 2.292-.53.52-1.42.992-2.244.992C5.998 10.61 4.71 7 4.71 4.822M3.69 1.87C2.27 3.07 1.805 4.837 1.805 6.333c0 2.535 1.98 5.104 5.48 5.104.33 0 .69-.032 1.056-.064-.165.39-.33.716-.33 1.27 0 1.006.527 1.624.99 2.21-1.485.098-4.258.26-6.303 1.495C.75 17.49.156 19.144.156 20.316c0 2.406 2.215 4.674 7 4.674 5.678 0 8.775-3.112 8.775-6.167 0-2.245-1.32-3.352-2.77-4.555l-1.19-.908c-.362-.294-.857-.685-.857-1.398 0-.716.495-1.173.924-1.595 1.385-1.07 2.77-2.212 2.77-4.617 0-2.473-1.503-3.666-2.263-4.284h1.957L16.642.16 9.76.156C7.975.157 5.57.34 3.69 1.87"/></g></svg>