<svg width="19" height="10" viewBox="0 0 19 10" xmlns="http://www.w3.org/2000/svg"><title>Down</title><path d="M9.152 8.096L1.442.67C1.225.46.87.46.652.67c-.22.21-.22.553 0 .762L9.315 9.78l.017.013c.01.01.024.022.037.03.01.007.02.015.03.02.012.01.025.017.04.025.01.007.02.01.033.017l.025.012c.004 0 .01.003.014.004.013.006.026.01.038.013l.04.012.04.006c.013.002.028.005.042.005.012.003.026.003.04.003.013 0 .027 0 .04-.003.014 0 .028-.003.042-.004.013 0 .026-.002.04-.005l.042-.012.034-.01.016-.006c.01-.004.018-.008.027-.014.01-.004.022-.008.032-.015.014-.008.027-.015.04-.024l.03-.02c.012-.01.023-.018.035-.03l.018-.014 8.664-8.348c.11-.104.166-.242.166-.38s-.055-.276-.166-.38c-.217-.212-.573-.212-.79 0h-.002l-7.708 7.424-.56.397-.56-.397z" fill-rule="evenodd"/></svg>