<svg viewBox="0 0 165 34" xmlns="http://www.w3.org/2000/svg"><g fill="#630A5D" fill-rule="evenodd"><path d="M131.332 33.988c-8.81 0-13.582-5.538-13.582-17.495 0-12.013 5.774-16.41 13.48-16.41 9.105 0 11.07 6.203 11.425 10.477h-4.414c-.356-3.002-1.873-6.61-6.908-6.61-5.353 0-9.066 3.29-9.066 12.476 0 9.618 3.613 13.73 9.1 13.73 5.058 0 6.518-3.206 6.91-7.05h4.38c-.396 5.41-2.963 10.882-11.324 10.882M112.46 33.208L97.53 7.034v26.174h-4.145V.728h5.56l13.447 23.564V.728h4.078v32.48M70.873 33.208V.728h20.995v3.83H75.186v9.63h16.008v3.932H75.186v11.257h16.682v3.83M34.038 33.988c-9.394 0-12.133-5.052-12.267-10.408h4.483c.135 4.408 2.245 6.645 7.953 6.645 3.857 0 6.572-2.026 6.572-5.764 0-3.82-3.615-4.796-7.65-5.73-5.203-1.2-11.256-2.602-11.256-9.9 0-6.16 5.444-8.747 10.953-8.747 9.374 0 10.884 5.223 11.087 8.34h-4.415c-.168-1.66-1.527-4.576-6.706-4.576-3.25 0-6.368 1.58-6.368 4.68 0 4.404 4.21 5.045 8.66 6.136 4.96 1.216 10.178 2.744 10.178 9.663 0 6.567-5.132 9.662-11.222 9.662M0 33.208V.728h20.996v3.83H4.314v9.63H20.32v3.932H4.315v11.257h16.682v3.83M144.004 33.208V.728h20.994v3.83h-16.682v9.63h16.008v3.932h-16.008v11.257h16.682v3.83M58.403 33.988c-9.394 0-12.132-5.052-12.267-10.408h4.482c.135 4.408 2.245 6.645 7.954 6.645 3.857 0 6.572-2.026 6.572-5.764 0-3.82-3.616-4.796-7.65-5.73-5.203-1.2-11.257-2.602-11.257-9.9 0-6.16 5.444-8.747 10.953-8.747 9.375 0 10.885 5.223 11.087 8.34h-4.414c-.17-1.66-1.528-4.576-6.707-4.576-3.25 0-6.37 1.58-6.37 4.68 0 4.404 4.212 5.045 8.662 6.136 4.958 1.216 10.177 2.744 10.177 9.663 0 6.567-5.13 9.662-11.222 9.662"/></g></svg>