<?xml version="1.0" encoding="UTF-8" standalone="no"?>
<svg width="12px" height="11px" viewBox="0 0 12 11" version="1.1" xmlns="http://www.w3.org/2000/svg" xmlns:xlink="http://www.w3.org/1999/xlink">
    <!-- Generator: Sketch 3.7.2 (28276) - http://www.bohemiancoding.com/sketch -->
    <title>Shape</title>
    <desc>Created with Sketch.</desc>
    <defs></defs>
    <g id="Desktop" stroke="none" stroke-width="1" fill="none" fill-rule="evenodd">
        <g id="Desktop-Article-landscape" transform="translate(-185.000000, -1657.000000)" fill="#B70F7C">
            <g id="main-col" transform="translate(0.000000, 324.000000)">
                <g id="Latest-News" transform="translate(90.000000, 702.000000)">
                    <g id="Group-6" transform="translate(0.000000, 72.000000)">
                        <g id="view-more" transform="translate(1.000000, 556.000000)">
                            <g id="Group-3">
                                <path d="M100.060178,14.6899996 C100.313626,14.6899996 100.519323,14.4843027 100.519323,14.2308547 L100.519323,4.50547851 L104.460851,8.44700731 C104.550614,8.53654055 104.667926,8.58130717 104.785467,8.58130717 C104.903008,8.58130717 105.020549,8.53654055 105.110312,8.44700731 C105.289608,8.26771125 105.289608,7.97707258 105.110312,7.79754695 L100.447007,3.13447204 C100.267711,2.95517599 99.9770726,2.95517599 99.7975469,3.13447204 L95.134472,7.79777652 C94.955176,7.97707258 94.955176,8.26771125 95.134472,8.44723688 C95.3137681,8.62653294 95.6044068,8.62653294 95.7839324,8.44723688 L99.601033,4.62990676 L99.601033,14.2308547 C99.601033,14.4843027 99.8067298,14.6899996 100.060178,14.6899996 L100.060178,14.6899996 Z" id="Shape" transform="translate(100.122392, 8.845000) rotate(-270.000000) translate(-100.122392, -8.845000) "></path>
                            </g>
                        </g>
                    </g>
                </g>
            </g>
        </g>
    </g>
</svg>