<?xml version="1.0" encoding="UTF-8" standalone="no"?>
<svg width="50px" height="40px" viewBox="0 0 50 40" version="1.1" xmlns="http://www.w3.org/2000/svg" xmlns:xlink="http://www.w3.org/1999/xlink">
    <!-- Generator: Sketch 3.8.3 (29802) - http://www.bohemiancoding.com/sketch -->
    <title>quotations</title>
    <desc>Created with Sketch.</desc>
    <defs>
        <polygon id="path-1" points="22.6689177 39.6162605 22.6689177 2.13125968e-05 0 2.13125968e-05 1.11922302e-20 39.6162605 22.6689177 39.6162605"></polygon>
        <polygon id="path-3" points="22.6689177 39.6162605 22.6689177 2.13125959e-05 0 2.13125959e-05 1.11922302e-20 39.6162605 22.6689177 39.6162605"></polygon>
    </defs>
    <g id="desktop" stroke="none" stroke-width="1" fill="none" fill-rule="evenodd">
        <g id="Desktop-Home-v1-r2" transform="translate(-696.000000, -4409.000000)">
            <g id="quote" transform="translate(250.000000, 4409.000000)">
                <g id="copy" transform="translate(60.000000, 0.000000)">
                    <g id="quotations" transform="translate(386.000000, 0.000000)">
                        <g id="Page-1">
                            <mask id="mask-2" fill="white">
                                <use xlink:href="#path-1"></use>
                            </mask>
                            <g id="Clip-2"></g>
                            <path d="M14.2279987,0.0808533654 C15.1405528,-0.193211806 15.3379287,0.254731571 15.196297,1.04546341 C9.73418581,6.2779554 9.32952381,13.3730142 14.0723277,19.2182198 C16.3161372,21.9832973 19.2652148,23.6670179 22.397629,25.1325628 C23.6368032,32.2996568 20.5865601,37.5694084 14.1677123,39.2775548 C12.2174892,39.7967054 10.2478588,39.6845126 8.30052614,39.1757118 C3.85130869,37.1148411 0.82005994,33.8964383 0.154845155,28.8651482 C-0.333226773,25.1735483 0.374931735,21.620637 1.6587013,18.1559068 C4.29437229,11.0405622 8.59824176,5.09930956 14.2279987,0.0808533654" id="Fill-1" fill="#000000" mask="url(#mask-2)"></path>
                        </g>
                        <g id="Page-1" transform="translate(26.495726, 0.000000)">
                            <mask id="mask-4" fill="white">
                                <use xlink:href="#path-3"></use>
                            </mask>
                            <g id="Clip-2"></g>
                            <path d="M14.2279987,0.0808533654 C15.1405528,-0.193211806 15.3379287,0.254731571 15.196297,1.04546341 C9.73418581,6.2779554 9.32952381,13.3730142 14.0723277,19.2182198 C16.3161372,21.9832973 19.2652148,23.6670179 22.397629,25.1325628 C23.6368032,32.2996568 20.5865601,37.5694084 14.1677123,39.2775548 C12.2174892,39.7967054 10.2478588,39.6845126 8.30052614,39.1757118 C3.85130869,37.1148411 0.82005994,33.8964383 0.154845155,28.8651482 C-0.333226773,25.1735483 0.374931735,21.620637 1.6587013,18.1559068 C4.29437229,11.0405622 8.59824176,5.09930956 14.2279987,0.0808533654" id="Fill-1" fill="#000000" mask="url(#mask-4)"></path>
                        </g>
                    </g>
                </g>
            </g>
        </g>
    </g>
</svg>