<?xml version="1.0" encoding="UTF-8" standalone="no"?>
<svg width="15px" height="19px" viewBox="0 0 15 19" version="1.1" xmlns="http://www.w3.org/2000/svg" xmlns:xlink="http://www.w3.org/1999/xlink">
    <!-- Generator: Sketch 3.8.2 (29753) - http://www.bohemiancoding.com/sketch -->
    <title>Group</title>
    <desc>Created with Sketch.</desc>
    <defs></defs>
    <g id="desktop" stroke="none" stroke-width="1" fill="none" fill-rule="evenodd">
        <g id="Desktop-Channel-Video-v2-r2" transform="translate(-90.000000, -3030.000000)" fill="#630A5D">
            <g id="side-col" transform="translate(90.000000, 2814.000000)">
                <g id="bottom">
                    <g id="most-popular">
                        <g id="Group-2" transform="translate(0.000000, 109.000000)">
                            <g id="Group-5" transform="translate(0.000000, 107.000000)">
                                <g id="Group">
                                    <path d="M13.0583108,3.98312766 L11.6444595,3.98312766 C11.3876351,3.98312766 11.1796622,4.19051064 11.1796622,4.44660638 C11.1796622,4.70270213 11.3876351,4.91008511 11.6444595,4.91008511 L13.0583108,4.91008511 C13.5727703,4.91008511 14.0073649,5.54678723 14.0073649,6.30052128 L14.0073649,16.4972553 C14.0073649,17.2639255 13.3818243,17.8876915 12.612973,17.8876915 L2.38722973,17.8876915 C1.61837838,17.8876915 0.992837838,17.2639255 0.992837838,16.4972553 L0.992837838,6.3007234 C0.992837838,5.55992553 1.41831081,4.91028723 1.90317568,4.91028723 L3.27810811,4.91028723 C3.53493243,4.91028723 3.74290541,4.70290426 3.74290541,4.44680851 C3.74290541,4.19071277 3.53493243,3.98332979 3.27810811,3.98332979 L1.90317568,3.98332979 C0.888648649,3.98332979 0.0632432432,5.02287234 0.0632432432,6.3007234 L0.0632432432,16.4974574 C0.0632432432,17.7753085 1.10574324,18.8148511 2.38722973,18.8148511 L12.612973,18.8148511 C13.8944595,18.8148511 14.9369595,17.7753085 14.9369595,16.4974574 L14.9369595,6.3007234 C14.9369595,5.02267021 14.0941216,3.98312766 13.0583108,3.98312766 L13.0583108,3.98312766 Z" id="Shape"></path>
                                    <path d="M5.83418919,2.96541489 L7.0352027,1.76780851 L7.0352027,12.5171596 C7.0352027,12.7732553 7.24317568,12.9806383 7.5,12.9806383 C7.75682432,12.9806383 7.9647973,12.7732553 7.9647973,12.5171596 L7.9647973,1.76780851 L9.16581081,2.96541489 C9.25641892,3.05596809 9.37540541,3.10104255 9.49439189,3.10104255 C9.61337838,3.10104255 9.73236486,3.05576596 9.82297297,2.96541489 C10.0045946,2.78430851 10.0045946,2.49081915 9.82297297,2.30991489 L7.82858108,0.321180851 C7.64716216,0.140074468 7.35263514,0.140074468 7.17141892,0.321180851 L5.17702703,2.30991489 C4.99540541,2.49102128 4.99540541,2.78451064 5.17702703,2.96541489 C5.35844595,3.14631915 5.65297297,3.14631915 5.83418919,2.96541489 L5.83418919,2.96541489 Z" id="Shape"></path>
                                </g>
                            </g>
                        </g>
                    </g>
                </g>
            </g>
        </g>
    </g>
</svg>