<?xml version="1.0" encoding="utf-8"?><svg xmlns="http://www.w3.org/2000/svg" xmlns:xlink="http://www.w3.org/1999/xlink"><symbol width="14" height="8" viewBox="0 0 14 8" id="icon-arrow-down"><title>arrow</title><g fill-rule="evenodd"><path d="M1.66 0l6.637 6.395-1.66 1.598L0 1.6 1.66 0"/><path d="M5.018 6.395L11.655 0l1.66 1.6-6.638 6.393-1.66-1.598"/></g></symbol><symbol width="17" height="30" viewBox="0 0 17 30" id="icon-arrow-next"><title>Next Icon</title><path d="M1.175 29.619c.255.254.587.381.92.381.334 0 .666-.127.92-.381L16.62 16.015a1.301 1.301 0 0 0 0-1.84L3.015.57a1.301 1.301 0 1 0-1.84 1.84L13.86 15.095 1.175 27.778a1.3 1.3 0 0 0 0 1.84z" fill="#FFF" fill-rule="evenodd"/></symbol><symbol width="17" height="30" viewBox="0 0 17 30" id="icon-arrow-prev"><title>Previous Icon</title><path d="M15.825.381a1.296 1.296 0 0 0-.92-.381c-.334 0-.666.127-.92.381L.38 13.985a1.301 1.301 0 0 0 0 1.84L13.985 29.43a1.301 1.301 0 1 0 1.84-1.84L3.14 14.905 15.825 2.222a1.3 1.3 0 0 0 0-1.84z" fill="#FFF" fill-rule="evenodd"/></symbol><symbol width="10" height="10" viewBox="0 0 10 10" id="icon-arrow-small"><title>arrow-small-line</title><path d="M4.764 0l-.219.218-.622.616-.222.22.221.22 2.979 2.978H0v1.495h6.901L3.922 8.725l-.221.221.222.22.622.616.219.218.219-.219L9.545 5.22l.219-.221-.219-.219L4.983.219 4.764 0z" fill="#3D9982" fill-rule="evenodd"/></symbol><symbol width="85" height="84" viewBox="0 0 85 84" id="icon-badge-easy"><title>Group</title><g fill="none" fill-rule="evenodd"><ellipse fill="#FFECE6" cx="42.256" cy="42" rx="42" ry="42"/><path d="M13.696 51H24.16v-2.736h-7.416v-4.056h6.288v-2.712h-6.288V37.2h7.176v-2.736H13.696V51zm25.62 0h3.24l-6.192-16.536h-3.312L26.86 51h3.264l1.512-4.008h6.168L39.316 51zm-4.608-13.008l2.088 6.312h-4.128l2.04-6.312zm10.452 8.184c0 2.832 2.4 5.088 5.928 5.088 3.024 0 5.664-1.704 5.808-4.68.144-1.944-.816-4.032-4.512-5.04l-2.04-.6c-1.776-.48-1.968-1.368-1.968-1.896 0-1.176 1.104-1.944 2.472-1.944 1.536 0 2.472.864 2.472 2.16h3.072c0-3.096-2.376-4.992-5.496-4.992-3.048 0-5.568 1.944-5.568 4.848 0 1.464.576 3.552 4.176 4.608l2.04.528c1.608.432 2.352 1.152 2.28 2.256-.072 1.128-1.08 1.992-2.736 1.992-1.776 0-2.808-1.128-2.856-2.328H45.16zM68.212 51v-7.488l6.384-9.048h-3.672l-4.296 6.36-4.248-6.36h-3.648l6.336 9V51h3.144z" fill="#F26457"/></g></symbol><symbol width="84" height="84" viewBox="0 0 84 84" id="icon-badge-staff"><title>Staff Fave</title><g fill="none" fill-rule="evenodd"><ellipse fill="#FFECE6" cx="42" cy="42" rx="42" ry="42"/><path d="M21.722 36.5c0 2.2 1.56 4.02 4.64 4.02 3.36 0 5.44-2.7 5.44-4.96 0-1.18-.28-2.02-1.96-4.4-1.16-1.62-1.5-2.4-1.5-3.04 0-.58.36-.96.8-.96.74 0 1.48.4 2.54 1.28.44-.22.86-.86.86-1.64 0-1.2-.86-2.44-3.02-2.44-2.52 0-4.24 2.38-4.24 4.6 0 1.24.34 2.36 1.4 3.72 1.86 2.36 1.98 2.9 1.98 3.56 0 1.02-.6 1.72-1.36 1.72-1.34 0-2.58-1.2-2.58-3.92v-.38c-.18-.22-.48-.32-.82-.32-1.4 0-2.18 1.7-2.18 3.16zm11.725.2c0 1.84 1.04 2.64 2.58 2.64 2.3 0 5.36-3.58 5.36-4.76 0-.4-.42-.68-.8-.68-1.36 1.92-2.74 2.88-3.56 2.88-.42 0-.54-.22-.54-.7 0-.3.16-1.42.7-3.62.58.1 1 .12 1.46.12.66 0 1.16-.58 1.16-1.34 0-.3-.14-.66-.38-.84-.26.06-1.1.12-1.72.14 1.06-2.12 1.3-2.6 1.3-3.22 0-.86-.42-1.18-1.34-1.18-1.36 0-2.44 1.26-2.62 3.02-.08.74-.1 1.06-.12 1.48-.82.02-1.26.58-1.26 1.2 0 .44.34.48.74.52-.76 2.54-.96 3.76-.96 4.34zm11.025-.02c-.04.3-.06.56-.06.78 0 1.28.56 1.64 1.44 1.64 1.44 0 4.76-3.22 4.76-4.52 0-.36-.32-.62-.74-.62-1.28 1.8-2.32 2.56-2.72 2.56-.16 0-.24-.06-.24-.46 0-.52.26-1.78.96-4.3.16-.56.22-1.06.22-1.32 0-.7-.74-1.62-2.1-1.62-.28 0-.54.08-.7.26l-.06 1.16c-.1-.1-.24-.14-.52-.14-2 0-4.48 3.14-4.48 6.14 0 1.82.84 2.76 1.98 2.76.7 0 1.62-.5 2.26-2.32zm.02-.98c-.24.3-.52.5-.8.5s-.52-.08-.52-.82c0-1.54.96-3.2 1.96-3.84l-.64 4.16zm8.405-1.36c.36.3.6 1 .6 1.94 0 2.16-1.52 5.12-2.28 5.12-.14 0-.24-.06-.24-.2 0-.04.02-.12.04-.18.42-1.02 1.44-3.9 1.88-6.68zm7.14-.54c.36.3.6 1 .6 1.94 0 2.16-1.02 4.12-1.78 4.12-.14 0-.24-.06-.24-.2 0-.04.02-.12.04-.18.44-1.3 1.02-3.42 1.38-5.68zm-4.9-2.86c1.34-1.38 2.24-2.78 2.24-4.1 0-2.04-1.82-3.44-3.38-3.44-1.32 0-2.28 1.26-3.14 7.8-.44.04-.86.64-.86 1.2 0 .32.18.48.56.5-.24 1.24-.88 3.34-1.36 4.76-1.12 3.34-1.22 3.86-1.22 4.62 0 1.1.64 1.74 2 1.74 2.64 0 5.54-4.54 5.54-8.14 0-1.4-.76-2.64-1.52-3.06 1.44-.08 2.88-.44 3.72-.86-.18 1.28-.5 2.62-1 4.38-.66 2.32-.92 3.6-.92 4.12 0 1.1.52 1.74 1.62 1.74 2.64 0 5.24-3.26 5.24-6.86 0-1.4-.52-2.4-1.28-2.82.4.04.8.06 1.26.06.66 0 1.16-.58 1.16-1.34 0-.3-.14-.66-.38-.84-.26.06-2.4.14-3.02.16 1.34-1.16 1.94-2 1.94-2.76 0-1.06-1.54-2.3-2.7-2.3-.8 0-.98.48-1.58 4.52-.6.38-1.8.76-2.92.92zm-.52-4.98c.64.26 1 .66 1 1.38 0 .72-.78 2.02-2.18 3.4.16-1.12.88-4.18 1.18-4.78zM25.222 51.1c0-.94.5-1.46 1.58-1.46s2.52.22 4.64.9c-.66 1.16-1.02 1.98-1.3 3.12-.28.02-.52.06-.7.16-.38.2-.54.54-.54.88 0 .4.2.82.54 1.1-4.74 3.16-5.68 4.84-5.68 6.34 0 1.74 1.06 2.86 3.06 2.86 2.84 0 4.62-2.6 5.42-6.16.06-.28.5-2.06.56-2.4 0 0 .82.18 1.36.18 1.36 0 2.36-.64 2.36-1.96 0-.28-.18-.64-.36-.78-.52.16-1.12.28-2.1.3-.26 0-.54-.06-.86-.1.22-1.26.38-2.04.68-2.94.9.26 1.94.36 2.62.36 1.5 0 2.72-.84 2.72-2.1 0-.24-.1-.62-.24-.76-1.94-.02-3.46-.16-8.5-1.06-1.54-.28-2.18-.32-3.16-.32-2.86 0-4.36 2.08-4.36 4.32 0 1.8 1.26 3.28 2.48 3.28 1.08 0 1.62-.64 1.62-1.36-1.38-.8-1.84-1.6-1.84-2.4zm3.96 6.82c-.62 3.42-1.4 5.06-2.14 5.06-.44 0-.74-.3-.74-1.12 0-.74.58-1.8 2.88-3.94zm11.825 1.76c-.04.3-.06.56-.06.78 0 1.28.56 1.64 1.44 1.64 1.44 0 4.76-3.22 4.76-4.52 0-.36-.32-.62-.74-.62-1.28 1.8-2.32 2.56-2.72 2.56-.16 0-.24-.06-.24-.46 0-.52.26-1.78.96-4.3.16-.56.22-1.06.22-1.32 0-.7-.74-1.62-2.1-1.62-.28 0-.54.08-.7.26l-.06 1.16c-.1-.1-.24-.14-.52-.14-2 0-4.48 3.14-4.48 6.14 0 1.82.84 2.76 1.98 2.76.7 0 1.62-.5 2.26-2.32zm.02-.98c-.24.3-.52.5-.8.5s-.52-.08-.52-.82c0-1.54.96-3.2 1.96-3.84l-.64 4.16zm13.245-4.1c0-1-.44-1.9-1.68-1.9-.48 0-.84.18-1.02.42.06.42.12 1.18.12 1.54 0 2.84-1.3 5.04-2.12 5.04-.44 0-.64-.28-.64-1.06 0-1.46.78-3.28 2.06-4.48.02-.08.02-.16.02-.24 0-.8-.68-1.12-1.46-1.12-1.58 0-2.84 1.08-2.86 2.08 0 .36.08.8.58 1.04-.8 1.14-1.2 2.44-1.2 3.44 0 2 1.12 2.82 2.64 2.82 2.6 0 5.56-3.28 5.56-7.58zm5.085.86c0 .6-.24 1.22-1.36 1.42.14-1.4.68-2.08.96-2.08.24 0 .4.24.4.66zm-1.44 6.72c2.6 0 5.94-3.18 5.94-4.66 0-.32-.28-.64-.76-.66-1.14 1.74-2.9 2.9-4.26 2.9-.78 0-.96-.5-.96-1.4 2.74-.62 3.72-1.92 3.72-3.6 0-1.4-.76-2.06-2.14-2.06-1.94 0-4.4 3.08-4.4 6.1 0 2.16.9 3.38 2.86 3.38z" fill="#F26457"/></g></symbol><symbol width="35" height="32" viewBox="0 0 35 32" id="icon-ckl-bug"><title>Group</title><path d="M28.085 1.364c.176 0-2.56.027-2.56.027-.095.02-.158.062-.18.136l.019 27.914.001.394c0 .044.052.073.052.073s1.916.048 2.75-.127c2.406-.503 3.658-2.469 4.328-4.312.385-1.105.632-2.23.758-3.422l.118-1.105c.032-.053.859.127.859.127l-.024 9.604H19.112c-.173-.073-.094-.586-.094-.72l.126-.04h2.197c.055-.019.133-.032.15-.092l.023-.22L21.5 1.546a.21.21 0 0 0-.141-.116l-2.197-.05-.007-.827s5.85-.119 8.931 0c.14 0 0 .811 0 .811zm-14.572.798c.213.22.347.473.551.686.087.014.15-.06.197-.12L16.045.566c.094-.12.351-.113.493-.093.07.026.103.086.11.146l-.007 5.472-.055 3.308c-.032.053-.395.113-.474.106-.118.014-.196-.066-.228-.146-.772-2.177-1.463-4.168-2.794-6.138C12.233 2.035 10.88.753 8.974.966c-1.007.053-1.834.699-2.354 1.41-1.07 1.417-1.329 2.667-1.7 4.531-.31 1.548-.333 2.317-.472 3.883-.11 1.233-.132 1.932-.173 3.168-.054 1.654-.086 2.588-.016 4.24.044 1.04.19 2.663.19 2.663.251 2.69.471 5.084 1.84 7.381.52 1.059 1.672 2.347 3.134 2.37 1.006.016 1.578-.217 2.361-.852 1.567-1.271 2.133-2.648 2.85-4.253.543-1.412.756-2.869 1.157-4.327.08-.107.44-.08.567-.073.055.013.11.027.141.073l.024.254-.016 10.13c-.016.06-.186.073-.242.093-.204.067-.283-.106-.393-.2-.63-.898-1.27-1.686-1.923-2.571h-.087c-.538.785-1.178 1.363-2.073 1.923-.643.403-1.593.64-2.304.643a7.245 7.245 0 0 1-.936-.06c-.935-.12-2.694-.63-3.85-1.752-2.779-2.47-3.503-4.587-4.22-7.782-.613-2.676-.589-6.992-.203-9.762.362-2.789.904-4.986 2.246-7.436.773-1.412 1.662-2.606 3.292-3.67C6.844.264 7.95 0 9.39 0c1.892 0 3.179 1.11 4.123 2.162z" fill="#171A1A" fill-rule="evenodd"/></symbol><symbol width="144" height="38" viewBox="0 0 144 38" id="icon-ckl-logo"><title>Cooking Light</title><g fill-rule="evenodd"><path d="M140.683 3.247V9.87c.022.09.134.084.216.096l2.55-.025c.15.077.09.615.082.74l-.075.058-2.685-.006c-.12.076-.082.215-.09.335v6.964l-.015 3.43.038 5.226c0 1.037.368 1.517 1.07 1.517.962 0 1.274-.745 1.397-2.835.002-.054.55-.084.64-.053.128.046.105.24.096.405-.113 1.972-.975 3.97-3.287 3.97-2.008 0-2.98-1.65-2.98-4.018V10.796l-.068-.05c-.59-.033-1.22.005-1.795-.033-.12-.063-.045-.5-.067-.608.022-.07.12-.064.187-.07 1.69-.038 2.563-1.6 3.057-2.738.515-1.277.69-2.747.943-4.12.104-.075.778-.12.786.07M98.735.723c.133 0 0 .77 0 .77.167 0-2.43.026-2.43.026-.09.018-.15.06-.173.128l.02 26.52v.373c0 .043.05.07.05.07s1.82.046 2.61-.12c2.286-.478 3.475-2.346 4.11-4.097.367-1.05.602-2.12.72-3.25l.113-1.05c.03-.05.816.12.816.12l-.006 3.042-.015 2.61c-.01.987-.017 1.7-.024 2.695l.09.063h1.18c.114-.026.106-.126.114-.203l.015-17.61c-.038-.07-.106-.095-.18-.133l-1.688-.012c-.045-.012-.077-.646.036-.716l4.73.012c.097.012.082.1.09.164l-.005 18.395c.007.052.075.077.135.07l2.124.007c.134.02.15.722.022.74H90.212c-.164-.07-.09-.557-.09-.683l.12-.038h2.087c.052-.02.127-.03.142-.088l.023-.21-.015-26.65a.19.19 0 0 0-.134-.11l-2.086-.05-.007-.785s5.555-.113 8.482 0M59.693 3.977c.322.536.363 1.204.215 1.81-.19.552-.71 1.225-1.608 1.35-.586.07-1.105-.08-1.492-.376-.783-.62-.957-1.528-.7-2.345.188-.553.692-1.21 1.582-1.363.915-.16 1.715.4 2.003.925m49.24-.001c.32.536.363 1.204.214 1.81-.19.552-.71 1.225-1.607 1.35-.586.07-1.106-.08-1.493-.376-.782-.62-.956-1.528-.7-2.345.19-.553.692-1.21 1.583-1.363.915-.16 1.714.4 2.003.925m-95.97-1.765c.202.21.33.45.524.65.082.014.142-.055.186-.112L15.37.697c.088-.114.332-.107.467-.088.067.025.097.082.105.14l-.008 5.197-.052 3.143c-.03.05-.375.108-.45.1-.112.014-.187-.063-.217-.138-.733-2.068-1.39-3.96-2.653-5.832-.815-1.126-2.1-2.344-3.91-2.142-.958.05-1.743.664-2.237 1.34C5.398 3.762 5.153 4.95 4.8 6.72c-.295 1.47-.317 2.202-.45 3.69-.103 1.17-.124 1.835-.163 3.01-.052 1.57-.082 2.457-.015 4.027.04.988.18 2.53.18 2.53.24 2.555.448 4.83 1.75 7.012.493 1.005 1.587 2.23 2.975 2.25.957.015 1.5-.206 2.244-.81 1.49-1.207 2.027-2.515 2.708-4.04.516-1.34.718-2.725 1.1-4.11.074-.1.417-.076.537-.07.053.013.105.026.135.07l.022.24-.014 9.625c-.016.057-.178.07-.23.088-.195.063-.27-.1-.374-.19-.598-.853-1.206-1.6-1.827-2.443h-.082c-.51.746-1.12 1.296-1.97 1.828-.61.382-1.514.607-2.19.61a6.603 6.603 0 0 1-.888-.057c-.888-.112-2.56-.597-3.658-1.664C1.95 25.97 1.26 23.96.58 20.924 0 18.382.023 14.28.39 11.65.734 9 1.25 6.913 2.524 4.586 3.256 3.244 4.1 2.11 5.65 1.1 6.627.41 7.677.16 9.046.16c1.796-.002 3.02 1.053 3.916 2.053m13.472 16.601l-.01.973c0 5.8-.372 9.244-3.272 9.244-2.71 0-3.294-2.022-3.294-9.153 0-.225-.012-.873-.012-.873 0-5.46.426-8.796 3.39-8.796 2.93 0 3.198 2.8 3.198 8.606m3.23.964c0-9.493-4.882-10.254-6.463-10.254-1.728 0-6.642 1.155-6.642 10.297 0 8.65 4.416 9.87 6.61 9.87 2.13 0 6.495-1.388 6.495-9.912m10.589-.966l-.01.973c0 5.8-.372 9.244-3.27 9.244-2.712 0-3.296-2.022-3.296-9.153 0-.225-.01-.873-.01-.873 0-5.46.424-8.796 3.388-8.796 2.93 0 3.198 2.8 3.198 8.606m3.23.964c0-9.493-4.882-10.254-6.463-10.254-1.728 0-6.643 1.155-6.643 10.297 0 8.65 4.416 9.87 6.61 9.87 2.13 0 6.496-1.388 6.496-9.912"/><path d="M56.474 10.69c-.703-.1-1.143.185-1.666.487-1.13.854-1.78 1.808-2.5 2.838l-2.12 3.2c-.04.07 0 .146.03.21l4.96 9.84.656 1.218c.078.14.402.1.58.1.067 0 .127-.023.15-.074l-.046-11.826v-2.82l.008-3.098-.052-.075zM47.694.87l.03.417.015 15.672.022 2.302c.007.025.045.044.075.025l3.845-6.118c.397-.735.952-1.544.428-2.245-.308-.41-1.432-.29-1.432-.29s-.11-.545.053-.71h4.263l4.393.006c-.082 18.68-.03 18.472-.005 18.604l.106.064 2.888-.007c.12-.056.12-.175.112-.283l-.02-17.445c.024-.076-.002-.165-.09-.183-.533-.014-1.184 0-1.7-.014-.045-.013-.097-.02-.12-.063V9.97l.097-.032 4.465.012s.257-.027.254.153c.002.105.015 1.938.015 1.938.023.02.07.055.082.02.193-.48.378-.814.742-1.254.48-.582 1.414-1.26 2.85-1.26 3.815 0 4.484 2.42 4.484 6.5l.052 6.697c.017 2.125.038 5.34.038 5.34l.03.42c.09.063 1.734.037 1.734.037.172.057.082.76.082.76l-6.804-.006c-.067-.114-.03-.544-.03-.664l.067-.05 1.735.005c.082-.012.112-.088.134-.146l-.045-15.176c0-1.8-.58-2.767-1.966-2.767-.8 0-1.505.376-1.894.835-1.36 1.606-1.308 3.854-1.263 6.186l.022 5.054h-.008c.015.436.015 3.98.015 3.98v.1l.017 1.87.065.057h1.757c.052.004.104.05.097.1 0 .107-.068.624-.068.624l-16.573.027-.02-.714c.59-.013 1.167.006 1.765-.02.045-.005.097-.05.075-.1L48.3 20.15c-.022-.04-.09-.026-.127-.02-.18.304-.418.59-.418.955l.007 7.392c0 .057.06.107.12.12.523.02 1.563.026 1.563.026l-.003.71h-6.518l-.01-.71s1.37.006 1.812-.044l.053-.046L44.74 1.63c.014-.063-.045-.113-.105-.14-.598-.03-1.167.008-1.743-.005l.008-.006c-.097-.008-.03-.103-.06-.147.008-.075-.06-.527.083-.565 1.435.007 3.102.013 4.538-.006.09.012.202.012.23.107z"/><path d="M83.3 18.57c0 1.093-.035 2.017-.115 2.79-.24 2.314-.895 3.254-2.3 3.254-.75 0-1.348-.227-1.756-1.078-.41-.85-.63-2.324-.63-4.82l.002-1.87c0-5.464.805-6.64 2.417-6.64 1.756 0 2.373 1.162 2.373 6.478 0 .83.006 1.58.006 1.885m-3.786 10.588c1.316.164 2.454.205 3.754.395 3.385.493 3.983 1.9 3.983 3.413 0 .676-.18 1.29-.596 1.92-.14.208-.298.41-.48.605a4.942 4.942 0 0 1-1.42 1.028 7.04 7.04 0 0 1-.978.39c-1.517.48-4.095.573-5.633-.274-1.656-.912-1.963-2.027-1.89-3.67.038-1.67 1.332-3.205 3.26-3.806M87.63 8.313c.586-.456.662-1.123.557-1.79-.105-.674-.923-1.178-1.625-1.178-.888 0-1.418.162-1.995.586-1.218 1.077-1.54 2.51-1.564 4-.014.046-.023.145-.103.103-.42-.222-.6-.32-1.273-.445-1.698-.273-3.202.516-4.196 1.672-1.78 2.106-2.288 4.527-2.05 7.284.233 2.074.824 4.034 2.543 5.578.046.025.054.082 0 .107-.403.088-.79.216-1.143.41-.863.473-1.197 1-1.197 1.72 0 1.507 1.184 2.206 2.425 2.637.023.032-.007.063-.037.082-.553.24-1.107.492-1.63.803-1.413.91-2.245 2.012-2.253 3.5 0 0 .008.422.06.6.27 1.73 2.016 3.046 3.893 3.64 1.13.316 2.44.433 3.876.34 1.412-.088 2.464-.413 3.52-.97 1.518-.802 2.4-1.855 2.964-3.253.25-.623.347-1.292.347-1.96 0-2.155-1.006-4.012-3.735-4.692-.754-.188-1.45-.276-2.363-.38l-3.546-.36c-.508-.1-1.04-.165-1.42-.53-.18-.173-.254-.406-.172-.634.135-.31.54-.417.905-.443.366-.055.613.134.89.255.605.284 1.176.372 1.924.31 2.37-.286 3.955-2.417 4.553-4.162.39-1.246.666-2.53.63-3.92-.008-1.922-.46-3.56-1.402-5.155a6.426 6.426 0 0 0-1.15-1.495c-.036-1.2.146-2.336.79-3.31.127-.17.314-.464.605-.423.093.013.16.073.157.133-.018.364.013.618.09.89.09.324.464.69.926.744.456.066.817.003 1.202-.294m34.517 26.482c-.48.796-1.44 1.66-2.88 2.113-.757.24-1.78.383-2.807.36-1.026-.022-2.055-.21-2.824-.634-1.657-.912-1.965-2.027-1.89-3.67.037-1.67 1.33-3.206 3.26-3.806 1.316.164 2.453.205 3.754.395.776.138 1.61.28 2.34.64.91.443 1.348 1.062 1.54 1.936.233 1.043.046 1.77-.494 2.665m-8.154-16.078l.002-1.872c0-5.464.804-6.64 2.416-6.64 1.757 0 2.375 1.162 2.375 6.48 0 .827.004 1.578.004 1.884 0 1.092-.034 2.017-.114 2.79-.24 2.314-.894 3.253-2.3 3.253-.75 0-1.347-.226-1.755-1.077-.41-.85-.63-2.324-.63-4.82m22.91 9.926l-1.487-.006c-.112 0-.232-.007-.284-.096l-.023-5.456-.006-3.618-.007-4.15c0-4.947-2.184-5.774-4.485-5.774-1.247 0-2.158.485-2.754 1.13-.375.41-.556.752-.8 1.248-.014.03-.06-.006-.082-.024V3.292l.007.006.007-2.385c-.007-.062-.015-.145-.097-.158l-4.42-.03-.32.012c-.113.063-.068.49-.068.59.022.05.075.088.135.094l1.697.008a.148.148 0 0 1 .098.082l-.024 26.987c-.044.17-.657.113-.695.082l-.284-.272c-.68-.696-1.53-1.02-2.504-1.22a26.45 26.45 0 0 0-2.363-.38l-3.546-.36c-.51-.102-1.04-.166-1.42-.532-.18-.17-.255-.405-.173-.633.135-.31.54-.394.905-.42.365-.056.612.134.89.254.604.284 1.175.35 1.923.286 2.37-.285 3.955-2.416 4.553-4.16.39-1.247.666-2.53.63-3.922-.008-1.92-.46-3.56-1.4-5.153a7.977 7.977 0 0 0-1.284-1.63c-.036-1.172.197-2.36.683-3.174.108-.18.315-.465.605-.424.094.013.16.072.157.133-.017.363.014.617.09.89.092.323.464.69.926.743.456.066.817.004 1.202-.294.587-.456.66-1.123.558-1.79-.106-.673-.923-1.178-1.625-1.178-.89 0-1.287.163-1.863.587-1.218 1.076-1.54 2.442-1.563 3.933-.016.045-.025.144-.106.1-.42-.22-.586-.298-1.166-.376-1.706-.232-3.202.516-4.196 1.673-1.78 2.105-2.288 4.526-2.05 7.283.233 2.074.823 4.034 2.543 5.577.045.025.052.083 0 .108-.404.09-.79.217-1.144.41-.863.474-1.197 1-1.197 1.72 0 1.508 1.184 2.207 2.426 2.638.022.032-.008.063-.038.082-.553.24-1.107.493-1.63.804-1.413.91-2.245 2.012-2.253 3.498 0 0 .01.424.06.6.27 1.733 2.097 3.003 3.974 3.598 1.13.316 2.2.44 3.638.386 1.575-.062 2.623-.393 3.68-.95 1.517-.8 2.4-1.877 2.962-3.275.567-1.408.41-3.055-.254-4.378.03-.05 5.16-.03 5.16-.03l.06-.064c.008-.127.067-.57-.067-.646l-1.727-.006c-.052-.006-.112-.032-.12-.082l-.008-7.992.03-4.208c.058-2.007.078-3.502 1.274-4.95.355-.442 1.034-.817 1.82-.817 1.73 0 2.05 1.59 2.05 3.662l-.014 2.54-.03 4.81v6.815a.196.196 0 0 1-.105.227h-1.77l-.053.04c-.016.12-.045.568.03.675l6.707.014.067-.025c.022-.12.097-.595-.038-.683"/></g></symbol><symbol width="18" height="18" viewBox="0 0 18 18" id="icon-close"><title>X</title><g fill="#FFF" fill-rule="evenodd"><path d="M1.363.515l16.122 16.122-.848.848L.515 1.363z"/><path d="M.515 16.637L16.637.515l.848.848L1.363 17.485z"/></g></symbol><symbol viewBox="0 0 19 5" width="19" height="5" id="icon-ellipses"><circle cx="2.5" cy="2.5" r="2.5"/><circle cx="9.5" cy="2.5" r="2.5"/><circle cx="16.5" cy="2.5" r="2.5"/></symbol><symbol width="17" height="13" viewBox="0 0 17 13" id="icon-email"><title>Email</title><path d="M8.506 7.27l7.882-5.91a.981.981 0 0 0-.985-.985H1.61a.981.981 0 0 0-.985.985l7.88 5.91zm0 1.77L.626 3.13v8.082a.98.98 0 0 0 .984.985h13.793a.981.981 0 0 0 .985-.985V3.13L8.506 9.04z" fill-rule="evenodd"/></symbol><symbol width="165" height="34" viewBox="0 0 165 34" id="icon-essence-logo"><title>logo</title><g fill="#630A5D" fill-rule="evenodd"><path d="M131.332 33.988c-8.811 0-13.582-5.538-13.582-17.495 0-12.013 5.774-16.41 13.48-16.41 9.105 0 11.07 6.203 11.425 10.477h-4.414c-.357-3.002-1.874-6.611-6.91-6.611-5.352 0-9.065 3.29-9.065 12.477 0 9.618 3.613 13.731 9.1 13.731 5.058 0 6.518-3.207 6.909-7.052h4.38c-.395 5.411-2.962 10.883-11.323 10.883M112.46 33.208L97.53 7.034v26.174h-4.145V.728h5.56l13.447 23.564V.728h4.078v32.48zM70.873 33.208V.728h20.995v3.83H75.186v9.63h16.008v3.932H75.186v11.257h16.682v3.831zM34.038 33.988c-9.394 0-12.133-5.052-12.267-10.408h4.482c.135 4.408 2.245 6.645 7.953 6.645 3.857 0 6.572-2.026 6.572-5.764 0-3.82-3.615-4.797-7.65-5.73-5.203-1.202-11.256-2.603-11.256-9.9 0-6.16 5.444-8.748 10.953-8.748 9.374 0 10.884 5.223 11.087 8.34h-4.415c-.168-1.66-1.527-4.576-6.706-4.576-3.25 0-6.37 1.581-6.37 4.679 0 4.405 4.21 5.046 8.661 6.137 4.959 1.216 10.178 2.744 10.178 9.663 0 6.567-5.132 9.662-11.222 9.662M0 33.208V.728h20.996v3.83H4.314v9.63H20.32v3.932H4.314v11.257h16.682v3.831zM144.004 33.208V.728h20.994v3.83h-16.682v9.63h16.008v3.932h-16.008v11.257h16.682v3.831zM58.403 33.988c-9.394 0-12.132-5.052-12.267-10.408h4.482c.135 4.408 2.245 6.645 7.954 6.645 3.857 0 6.572-2.026 6.572-5.764 0-3.82-3.616-4.797-7.65-5.73-5.203-1.202-11.257-2.603-11.257-9.9 0-6.16 5.444-8.748 10.953-8.748 9.375 0 10.885 5.223 11.087 8.34h-4.414c-.169-1.66-1.528-4.576-6.707-4.576-3.25 0-6.369 1.581-6.369 4.679 0 4.405 4.21 5.046 8.66 6.137 4.96 1.216 10.178 2.744 10.178 9.663 0 6.567-5.131 9.662-11.222 9.662"/></g></symbol><symbol width="134" height="27" viewBox="0 0 134 27" id="icon-essence-logo--slideout"><title>logo</title><path d="M106.565 26.99c-7.15 0-11.02-4.397-11.02-13.892 0-9.54 4.684-13.032 10.937-13.032 7.39 0 8.983 4.926 9.27 8.32h-3.58c-.29-2.384-1.522-5.25-5.607-5.25-4.343 0-7.356 2.612-7.356 9.908 0 7.638 2.93 10.904 7.383 10.904 4.104 0 5.288-2.546 5.606-5.6h3.553c-.32 4.297-2.404 8.643-9.188 8.643m-15.311-.621L79.137 5.587V26.37h-3.363V.58h4.512l10.91 18.713V.58h3.31v25.79m-36.999 0V.58h17.037v3.04H61.008v7.647h12.99v3.122h-12.99v8.94h13.536v3.04m-46.924.621c-7.623 0-9.846-4.01-9.955-8.265h3.637c.11 3.5 1.82 5.277 6.454 5.277 3.13 0 5.332-1.61 5.332-4.577 0-3.034-2.933-3.81-6.208-4.55-4.22-.955-9.133-2.068-9.133-7.863 0-4.89 4.418-6.946 8.888-6.946 7.606 0 8.832 4.148 8.996 6.623h-3.58c-.138-1.32-1.24-3.635-5.443-3.635-2.637 0-5.168 1.256-5.168 3.716 0 3.5 3.415 4.008 7.026 4.874 4.024.966 8.26 2.18 8.26 7.673 0 5.216-4.165 7.674-9.107 7.674M0 26.37V.58h17.036v3.04H3.5v7.647h12.99v3.122H3.5v8.94h13.536v3.04m99.811.001V.58h17.036v3.04h-13.536v7.647h12.99v3.122h-12.99v8.94h13.536v3.04m-86.493.621c-7.623 0-9.845-4.01-9.954-8.265h3.637c.11 3.5 1.82 5.277 6.453 5.277 3.13 0 5.333-1.61 5.333-4.577 0-3.034-2.935-3.81-6.21-4.55-4.22-.955-9.132-2.068-9.132-7.863 0-4.89 4.417-6.946 8.887-6.946 7.607 0 8.833 4.148 8.996 6.623h-3.58c-.137-1.32-1.24-3.635-5.442-3.635-2.638 0-5.168 1.256-5.168 3.716 0 3.5 3.416 4.008 7.027 4.874 4.023.966 8.258 2.18 8.258 7.673 0 5.216-4.163 7.674-9.106 7.674" fill-rule="evenodd"/></symbol><symbol width="15" height="30" viewBox="0 0 15 30" id="icon-facebook"><title>Like Cooking Light on Facebook</title><path d="M9.737 29.252V16.075h4.422l.662-5.136H9.737V7.663c0-1.492.407-2.498 2.548-2.498H15V.578c-.472-.064-2.09-.204-3.963-.204-3.926 0-6.602 2.396-6.602 6.78v3.785H0v5.135h4.435v13.177h5.302z" fill-rule="evenodd"/></symbol><symbol width="25" height="25.147" viewBox="0 0 25 25.147" id="icon-google-plus"><path d="M19.906 7.927v3.268H16.64v1.597h3.266v3.268h1.67v-3.268h3.268v-1.597h-3.267V7.927M3.056 19.635c0-2.31 2.112-3.09 2.838-3.35 1.386-.456 3.168-.52 3.467-.52.33 0 .494 0 .758.032 2.51 1.757 3.6 2.632 3.6 4.292 0 2.013-1.685 3.51-4.853 3.51-3.53.002-5.81-1.657-5.81-3.965M4.71 4.822c0-.846.164-1.804.725-2.487.53-.65 1.453-.993 2.312-.993 2.738 0 4.158 3.642 4.158 5.984 0 .585-.065 1.543-.825 2.292-.53.52-1.42.992-2.244.992C5.998 10.61 4.71 7 4.71 4.822M3.69 1.87c-1.42 1.2-1.885 2.967-1.885 4.463 0 2.535 1.98 5.104 5.48 5.104.33 0 .69-.032 1.056-.064-.165.39-.33.716-.33 1.27 0 1.006.527 1.624.99 2.21-1.485.098-4.258.26-6.303 1.495C.75 17.49.156 19.144.156 20.316c0 2.406 2.215 4.674 7 4.674 5.678 0 8.775-3.112 8.775-6.167 0-2.245-1.32-3.352-2.77-4.555l-1.19-.908c-.362-.294-.857-.685-.857-1.398 0-.716.495-1.173.924-1.595 1.385-1.07 2.77-2.212 2.77-4.617 0-2.473-1.503-3.666-2.263-4.284h1.957L16.642.16 9.76.156C7.975.157 5.57.34 3.69 1.87"/></symbol><symbol width="19" height="19" viewBox="0 0 19 19" id="icon-instagram"><title>Follow Cooking Light on Instagram</title><path d="M17.1 0H1.9C.855 0 0 .855 0 1.9v15.2C0 18.145.855 19 1.9 19h15.2c1.045 0 1.9-.855 1.9-1.9V1.9C19 .855 18.145 0 17.1 0zM9.5 5.7c2.09 0 3.8 1.71 3.8 3.8s-1.71 3.8-3.8 3.8-3.8-1.71-3.8-3.8 1.71-3.8 3.8-3.8zM2.375 17.1c-.285 0-.475-.19-.475-.475V8.55h1.995c-.095.285-.095.665-.095.95 0 3.135 2.565 5.7 5.7 5.7 3.135 0 5.7-2.565 5.7-5.7 0-.285 0-.665-.095-.95H17.1v8.075c0 .285-.19.475-.475.475H2.375zM17.1 4.275c0 .285-.19.475-.475.475h-1.9c-.285 0-.475-.19-.475-.475v-1.9c0-.285.19-.475.475-.475h1.9c.285 0 .475.19.475.475v1.9z" fill-rule="evenodd"/></symbol><symbol width="32" height="19" viewBox="0 0 32 19" id="icon-menu"><title>Menu Icon</title><path d="M0 0h32v2H0V0zm0 8h32v2H0V8zm0 8.49h32v2H0v-2z" fill-rule="evenodd"/></symbol><symbol viewBox="0 0 389 501.8" width="389" height="501.8" id="icon-pinterest"><path d="M162.6 327.7c-3.3 12.9-6.1 25.2-9.5 37.3-5.8 20.8-10.8 42-18.2 62.1-9.8 26.6-26 49.8-43.3 72.1-1.1 1.4-3.5 2.7-5.2 2.6-1-.1-2.5-2.9-2.7-4.6-4.1-29.6-6.5-59.4-1.9-89.1 2.9-18.9 7.7-37.5 12-56.1 8.9-38.2 18.1-76.4 26.9-114.6.7-2.8.4-6.3-.6-9.1-9.5-27.6-11-55.2 1.6-82.2 8-17.3 20.5-29.9 40.3-33 23.3-3.7 42.1 11.3 44.3 35 1.4 14.7-1.7 28.8-5.6 42.8-6.1 21.6-12.5 43.1-18.7 64.7-9.4 32.9 15.6 59.5 47.4 58.1 21.9-1 38.5-11.8 52-28 16.3-19.5 25.2-42.5 31-66.9 4.9-20.5 6.9-41.4 6.3-62.4-1.3-52.2-31.3-90.6-82.1-102.5-44.5-10.4-87-4.8-124.7 22.5-32.6 23.5-50.4 56.2-54.5 96-1.1 11-.8 22.3.5 33.3 1.6 14.7 7.9 27.8 17.7 39 4.6 5.2 5.6 10.6 3.7 17-2 6.5-3.4 13.2-5.1 19.8-2.6 9.8-7.7 12.2-17.2 8-19.6-8.8-33.7-23.3-42.4-42.6-19.5-43.3-18.9-87.1-.3-130.3 24.1-55.8 67.1-90.7 125-106.9C186.8-3.6 234.6-4.2 281 14.4c55.1 22.1 91.1 61.7 104.7 120.2 4.9 21.1 3.8 42.4 1.5 63.6-3.4 30.2-11.3 59.1-26.3 85.8-21.4 38.2-51.9 65.3-95.4 75.4-25.1 5.9-49.9 5.7-73.5-6.4-10.8-5.5-20.3-12.7-27.1-23-.6-.6-1.2-1.1-2.3-2.3z"/></symbol><symbol width="73" height="73" viewBox="0 0 73 73" id="icon-print"><title>Print</title><path d="M68.438 0A4.544 4.544 0 0 1 73 4.563v36.5a4.544 4.544 0 0 1-4.563 4.562h-7.604V30.417H12.167v15.208H4.563A4.543 4.543 0 0 1 0 41.062v-36.5A4.545 4.545 0 0 1 4.563 0h63.874zM18.25 36.5h36.5v34.98c0 .844-.676 1.52-1.52 1.52H19.77c-.844 0-1.52-.676-1.52-1.52V36.5zm8.11 11.193h13.69v4.563H26.36v-4.563zm0 10.1h18.25v4.56H26.36v-4.56z" fill-rule="evenodd"/></symbol><symbol width="20" height="17" viewBox="0 0 20 17" id="icon-search"><title>Search Icon</title><path d="M19.325 14.252l-2.835-2.115a8.504 8.504 0 1 0-1.76 2.463l2.785 2.078c.667.498 1.722.444 2.22-.223.498-.667.257-1.705-.41-2.203zm-9.697-.06A5.747 5.747 0 1 1 7.973 2.818a5.747 5.747 0 0 1 1.655 11.374z" fill="#B70F7C" fill-rule="evenodd"/></symbol><symbol width="26" height="22" viewBox="0 0 26 22" id="icon-sms"><title>Speech Bubble</title><g fill-rule="evenodd"><path d="M0 9c0-4.97 4.034-9 9.002-9h7.996a9 9 0 1 1 0 18H9.002A9 9 0 0 1 0 9zm6 2a2 2 0 1 0 .001-3.999A2 2 0 0 0 6 11zm7 0a2 2 0 1 0 .001-3.999A2 2 0 0 0 13 11zm7 0a2 2 0 1 0 .001-3.999A2 2 0 0 0 20 11z"/><path d="M14.556 12c.444 4-8.66 10-8.66 10s1.104-6 0-10h8.66z"/></g></symbol><symbol width="23" height="24" viewBox="0 0 23 24" id="icon-snapchat"><title>Follow Cooking Light on Snapchat</title><path d="M11.72.498h-.056l-.396.005c-.51 0-1.532.076-2.63.587a5.86 5.86 0 0 0-1.676 1.174c-.58.58-1.05 1.295-1.402 2.126-.514 1.216-.392 3.265-.294 4.91v.004l.032.54a.865.865 0 0 1-.378.075c-.29 0-.634-.1-1.024-.292a.883.883 0 0 0-.39-.085c-.232 0-.477.072-.69.204-.266.165-.438.4-.485.66-.03.17-.03.51.328.853.196.19.485.363.857.52.097.04.213.078.336.12.427.142 1.07.358 1.24.775.085.212.048.49-.11.827l-.01.028c-.04.096-.407.972-1.16 1.896a6.591 6.591 0 0 1-1.396 1.306c-.61.416-1.27.688-1.963.808a.565.565 0 0 0-.45.593.803.803 0 0 0 .056.248v.002c.11.272.366.502.78.705.506.248 1.262.457 2.25.62.05.1.1.352.136.524.038.184.077.372.132.57.06.218.217.477.617.477.153 0 .328-.037.53-.078a5.6 5.6 0 0 1 1.207-.146c.28 0 .57.026.863.077.563.1 1.05.463 1.61.882.824.614 1.756 1.31 3.18 1.31.037 0 .076-.003.115-.005.047.002.105.004.167.004 1.423 0 2.354-.694 3.176-1.308.564-.42 1.05-.782 1.612-.88.292-.052.583-.078.863-.078.483 0 .866.065 1.207.135.223.046.396.068.53.068h.025c.293 0 .51-.17.59-.467.055-.194.094-.378.133-.564.033-.16.087-.42.137-.52.987-.164 1.743-.373 2.25-.62.412-.203.667-.433.777-.703a.751.751 0 0 0 .057-.25.564.564 0 0 0-.45-.593c-3.076-.535-4.46-3.87-4.52-4.01-.002-.01-.007-.02-.01-.028-.158-.337-.194-.615-.11-.828.17-.417.813-.632 1.24-.775.122-.042.24-.08.335-.122.42-.175.72-.364.918-.58.236-.257.282-.503.28-.664-.008-.39-.29-.736-.74-.905a1.238 1.238 0 0 0-.5-.102c-.12 0-.297.017-.465.1-.36.178-.682.275-.96.29a.865.865 0 0 1-.316-.075l.027-.47.003-.07c.1-1.648.22-3.7-.293-4.916a6.661 6.661 0 0 0-1.407-2.132 5.865 5.865 0 0 0-1.683-1.174A6.422 6.422 0 0 0 11.72.5" fill-rule="evenodd"/></symbol><symbol viewBox="0 0 273.4 222.2" width="273.4" height="222.2" id="icon-twitter"><title>Follow Cooking Light on Twitter</title><path d="M273.4 26.3c-10.1 4.5-20.9 7.5-32.2 8.8 11.6-6.9 20.5-17.9 24.7-31-10.9 6.4-22.9 11.1-35.7 13.6A55.919 55.919 0 0 0 189.3 0c-31 0-56.1 25.1-56.1 56.1 0 4.4.5 8.7 1.5 12.8C88 66.5 46.7 44.2 19 10.3c-4.8 8.3-7.6 17.9-7.6 28.2 0 19.5 9.9 36.6 25 46.7-9.2-.3-17.8-2.8-25.4-7v.7c0 27.2 19.3 49.8 45 55-4.7 1.3-9.7 2-14.8 2-3.6 0-7.1-.4-10.6-1 7.1 22.3 27.9 38.5 52.4 39-19.2 15-43.4 24-69.7 24-4.5 0-9-.3-13.4-.8 24.8 15.9 54.3 25.2 86 25.2 103.2 0 159.6-85.5 159.6-159.6 0-2.4-.1-4.9-.2-7.3 11.1-8 20.6-17.9 28.1-29.1z"/></symbol><symbol width="21" height="17" viewBox="0 0 21 17" id="icon-video"><title>Watch Cooking Light on YouTube</title><path d="M20.78 3.678s-.206-1.664-.835-2.397C19.147.32 18.252.315 17.842.26 14.905.014 10.5.014 10.5.014h-.01s-4.406 0-7.343.244c-.41.056-1.305.06-2.103 1.023C.414 2.015.21 3.68.21 3.68S0 5.632 0 7.588v1.83c0 1.955.21 3.91.21 3.91s.205 1.664.834 2.397c.798.962 1.847.932 2.314 1.032 1.68.186 7.136.243 7.136.243s4.41-.008 7.348-.252c.41-.056 1.305-.06 2.103-1.023.63-.733.834-2.397.834-2.397s.21-1.955.21-3.91V7.59c0-1.956-.21-3.91-.21-3.91M8.327 11.64V4.855l5.67 3.404-5.67 3.38" fill-rule="evenodd"/></symbol><symbol width="18" height="14" viewBox="0 0 18 14" id="icon-youtube"><title>Watch Cooking Light on Youtube</title><path d="M17.28 3.477s-.168-1.24-.678-1.786C15.955.976 15.23.97 14.897.93 12.515.746 8.942.746 8.942.746h-.008S5.362.747 2.98.93c-.333.04-1.058.045-1.706.76-.51.547-.676 1.787-.676 1.787S.428 4.933.428 6.39v1.364c0 1.456.17 2.912.17 2.912s.166 1.24.676 1.785c.648.718 1.498.695 1.877.77 1.363.14 5.788.18 5.788.18s3.577-.004 5.96-.186c.33-.042 1.057-.046 1.704-.763.51-.544.677-1.784.677-1.784s.17-1.456.17-2.912V6.39c0-1.457-.17-2.913-.17-2.913m-10.1 5.93V4.354l4.6 2.536-4.6 2.518" fill-rule="evenodd"/></symbol></svg>