<?xml version="1.0" encoding="UTF-8" standalone="no"?><svg width="110" height="60" viewBox="0 0 110 60" xmlns="http://www.w3.org/2000/svg" xmlns:xlink="http://www.w3.org/1999/xlink"><svg width="75" height="60" viewBox="0 0 75 60" id="drop-shape-purple"><title>Fill 1</title><path d="M74.724 30s-9.53-4.685-22.953-20.722v.094C46.304 3.604 38.575 0 30.001 0 13.431 0 0 13.432 0 30c0 16.568 13.431 30 30 30 10.462 0 19.668-5.359 25.036-13.479C60.607 40.274 67.484 33.815 74.724 30" fill="#630A5D" fill-rule="evenodd"/></svg><svg width="35" height="35" viewBox="0 0 35 35" id="drop-shape-teal" x="75"><title>Group 9</title><g fill="#00B9AE" fill-rule="evenodd"><path d="M17.5.112c9.644 0 17.463 7.782 17.463 17.388 0 9.606-7.82 17.388-17.463 17.388C7.856 34.888.037 27.106.037 17.5.037 7.894 7.857.112 17.5.112z"/><path d="M2.122 24.463c1.49 1.49-2.42 9.42-2.085 9.718.335.335 8.564-2.607 9.793-1.378 1.49 1.49-9.16-9.83-7.708-8.34z"/></g></svg><svg width="10" height="10" viewBox="0 0 10 10" id="icon-arrow-small" x="87" y="46"><title>arrow-small-line</title><path d="M4.764 0l-.219.218-.622.616-.222.22.221.22 2.979 2.978H0v1.495h6.901L3.922 8.725l-.221.221.222.22.622.616.219.218.219-.219L9.545 5.22l.219-.221-.219-.219L4.983.219 4.764 0z" fill="#3D9982" fill-rule="evenodd"/></svg><svg width="16" height="11" viewBox="0 0 16 11" id="icon-arrow-small-accent" x="75" y="35"><title>Page 1 Copy 2</title><path d="M10.764.063l-.22.217-.62.617-.223.22.222.22 2.98 2.978H0v1.494h12.9L9.923 8.787l-.22.22.22.22.623.617.22.217.218-.218 4.562-4.561.22-.222-.22-.217L10.983.282" fill="#F8AB9C" fill-rule="evenodd"/></svg><svg width="12" height="11" viewBox="0 0 12 11" id="icon-arrow-small-purple" x="75" y="46"><title>Shape</title><path d="M.277 5.783c0 .253.206.459.46.459h9.725L6.52 10.183a.458.458 0 0 0 0 .65c.18.18.47.18.65 0l4.663-4.663a.46.46 0 0 0 0-.65L7.17.857a.46.46 0 0 0-.65.65l3.817 3.817h-9.6a.46.46 0 0 0-.46.459z" fill="#B70F7C" fill-rule="evenodd"/></svg><svg width="16" height="10" viewBox="0 0 16 10" id="icon-arrow-small-transparent" x="91" y="35"><title>Page 1 Copy 2</title><path fill="#FFF" d="M10.764 0l-.219.218-.622.616-.222.22.221.22 2.979 2.978H0v1.495h12.901L9.922 8.725l-.221.221.222.22.622.616.219.218.219-.219 4.562-4.561.219-.221-.219-.219L10.983.219z" fill-rule="evenodd" fill-opacity=".5"/></svg></svg>