<?xml version="1.0" encoding="UTF-8" standalone="no"?><svg width="32" height="21" viewBox="0 0 32 21" xmlns="http://www.w3.org/2000/svg" xmlns:xlink="http://www.w3.org/1999/xlink"><svg width="10" height="10" viewBox="0 0 10 10" id="icon-arrow-small" y="11"><title>arrow-small-line</title><path d="M4.764 0l-.219.218-.622.616-.222.22.221.22 2.979 2.978H0v1.495h6.901L3.922 8.725l-.221.221.222.22.622.616.219.218.219-.219L9.545 5.22l.219-.221-.219-.219L4.983.219 4.764 0z" fill="#3D9982" fill-rule="evenodd"/></svg><svg width="16" height="11" viewBox="0 0 16 11" id="icon-arrow-small-accent"><title>Page 1 Copy 2</title><path d="M10.764.063l-.22.217-.62.617-.223.22.222.22 2.98 2.978H0v1.494h12.9L9.923 8.787l-.22.22.22.22.623.617.22.217.218-.218 4.562-4.561.22-.222-.22-.217L10.983.282" fill="#F8AB9C" fill-rule="evenodd"/></svg><svg width="16" height="10" viewBox="0 0 16 10" id="icon-arrow-small-transparent" x="16"><title>Page 1 Copy 2</title><path fill="#FFF" d="M10.764 0l-.219.218-.622.616-.222.22.221.22 2.979 2.978H0v1.495h12.901L9.922 8.725l-.221.221.222.22.622.616.219.218.219-.219 4.562-4.561.219-.221-.219-.219L10.983.219z" fill-rule="evenodd" fill-opacity=".5"/></svg></svg>