<?xml version="1.0" encoding="UTF-8" standalone="no"?><svg width="110" height="60" viewBox="0 0 110 60" xmlns="http://www.w3.org/2000/svg" xmlns:xlink="http://www.w3.org/1999/xlink"><svg width="75" height="60" viewBox="0 0 75 60" id="drop-shape-purple"><title>Fill 1</title><path d="M74.724 30s-9.53-4.685-22.953-20.722v.094C46.305 3.604 38.576 0 30 0 13.432 0 0 13.432 0 30c0 16.568 13.432 30 30 30 10.463 0 19.67-5.36 25.037-13.48 5.57-6.246 12.447-12.705 19.687-16.52" fill="#630A5D" fill-rule="evenodd"/></svg><svg width="35" height="35" viewBox="0 0 35 35" id="drop-shape-teal" x="75"><title>Group 9</title><g fill="#00B9AE" fill-rule="evenodd"><path d="M17.5.112c9.644 0 17.463 7.782 17.463 17.388 0 9.606-7.82 17.388-17.463 17.388C7.856 34.888.037 27.106.037 17.5.037 7.894 7.857.112 17.5.112z"/><path d="M2.122 24.463c1.49 1.49-2.42 9.42-2.085 9.718.335.336 8.564-2.606 9.793-1.377 1.49 1.49-9.16-9.83-7.708-8.34z"/></g></svg><svg width="10" height="10" viewBox="0 0 10 10" id="icon-arrow-small" x="87" y="46"><title>arrow-small-line</title><path d="M4.764 0l-.22.218-.62.616-.223.22.222.22 2.98 2.978H0v1.495H6.9L3.923 8.725l-.22.22.22.22.623.617.22.218.218-.22 4.562-4.56.22-.22-.22-.22L4.983.22 4.763 0z" fill="#3D9982" fill-rule="evenodd"/></svg><svg width="16" height="11" viewBox="0 0 16 11" id="icon-arrow-small-accent" x="75" y="35"><title>Page 1 Copy 2</title><path d="M10.764.063l-.22.217-.62.617-.223.22.223.22 2.98 2.978H0V5.81h12.9L9.923 8.786l-.22.22.22.22.623.617.22.217.218-.217 4.562-4.56.22-.223-.22-.217-4.563-4.56" fill="#F8AB9C" fill-rule="evenodd"/></svg><svg width="12" height="11" viewBox="0 0 12 11" id="icon-arrow-small-purple" x="75" y="46"><title>Shape</title><path d="M.277 5.783c0 .253.206.46.46.46h9.725l-3.942 3.94a.458.458 0 0 0 0 .65c.18.18.47.18.65 0l4.663-4.663a.46.46 0 0 0 0-.65L7.17.857a.46.46 0 0 0-.65.65l3.817 3.817h-9.6a.46.46 0 0 0-.46.46z" fill="#B70F7C" fill-rule="evenodd"/></svg><svg width="16" height="10" viewBox="0 0 16 10" id="icon-arrow-small-transparent" x="91" y="35"><title>Page 1 Copy 2</title><path fill="#FFF" d="M10.764 0l-.22.218-.62.616-.223.22.222.22 2.98 2.978H0v1.495h12.9L9.923 8.725l-.22.22.22.22.623.617.22.218.218-.22 4.562-4.56.22-.22-.22-.22L10.983.22z" fill-rule="evenodd" fill-opacity=".5"/></svg></svg>