<?xml version="1.0" encoding="UTF-8" standalone="no"?><svg width="125" height="107" viewBox="0 0 125 107" xmlns="http://www.w3.org/2000/svg" xmlns:xlink="http://www.w3.org/1999/xlink"><svg width="75" height="60" viewBox="0 0 75 60" id="drop-shape-purple"><title>Fill 1</title><path d="M74.724 30s-9.53-4.685-22.953-20.722v.094C46.304 3.604 38.575 0 30.001 0 13.431 0 0 13.432 0 30c0 16.568 13.431 30 30 30 10.462 0 19.668-5.359 25.036-13.479C60.607 40.274 67.484 33.815 74.724 30" fill="#630A5D" fill-rule="evenodd"/></svg><svg width="35" height="35" viewBox="0 0 35 35" id="drop-shape-teal" y="60"><title>Group 9</title><g fill="#00B9AE" fill-rule="evenodd"><path d="M17.5.112c9.644 0 17.463 7.782 17.463 17.388 0 9.606-7.82 17.388-17.463 17.388C7.856 34.888.037 27.106.037 17.5.037 7.894 7.857.112 17.5.112z"/><path d="M2.122 24.463c1.49 1.49-2.42 9.42-2.085 9.718.335.335 8.564-2.607 9.793-1.378 1.49 1.49-9.16-9.83-7.708-8.34z"/></g></svg><svg width="10" height="10" viewBox="0 0 10 10" id="icon-arrow-small" x="8" y="95"><title>arrow-small-line</title><path d="M4.764 0l-.219.218-.622.616-.222.22.221.22 2.979 2.978H0v1.495h6.901L3.922 8.725l-.221.221.222.22.622.616.219.218.219-.219L9.545 5.22l.219-.221-.219-.219L4.983.219 4.764 0z" fill="#3D9982" fill-rule="evenodd"/></svg><svg width="16" height="11" viewBox="0 0 16 11" id="icon-arrow-small-accent" x="77" y="60"><title>Page 1 Copy 2</title><path d="M10.764.063l-.22.217-.62.617-.223.22.222.22 2.98 2.978H0v1.494h12.9L9.923 8.787l-.22.22.22.22.623.617.22.217.218-.218 4.562-4.561.22-.222-.22-.217L10.983.282" fill="#F8AB9C" fill-rule="evenodd"/></svg><svg width="12" height="11" viewBox="0 0 12 11" id="icon-arrow-small-purple" x="105" y="60"><title>Shape</title><path d="M.277 5.783c0 .253.206.459.46.459h9.725L6.52 10.183a.458.458 0 0 0 0 .65c.18.18.47.18.65 0l4.663-4.663a.46.46 0 0 0 0-.65L7.17.857a.46.46 0 0 0-.65.65l3.817 3.817h-9.6a.46.46 0 0 0-.46.459z" fill="#B70F7C" fill-rule="evenodd"/></svg><svg width="16" height="10" viewBox="0 0 16 10" id="icon-arrow-small-transparent" x="105" y="40"><title>Page 1 Copy 2</title><path fill="#FFF" d="M10.764 0l-.219.218-.622.616-.222.22.221.22 2.979 2.978H0v1.495h12.901L9.922 8.725l-.221.221.222.22.622.616.219.218.219-.219 4.562-4.561.219-.221-.219-.219L10.983.219z" fill-rule="evenodd" fill-opacity=".5"/></svg><svg width="12" height="11" viewBox="0 0 12 11" id="icon-arrow-small-white" x="93" y="60"><title>Shape</title><path d="M.737 6.242h9.725L6.52 10.183a.458.458 0 0 0 0 .65c.18.18.47.18.65 0l4.663-4.663a.46.46 0 0 0 0-.65L7.17.857a.46.46 0 0 0-.65.65l3.817 3.817h-9.6a.46.46 0 0 0 0 .918z" fill="#FFF" fill-rule="evenodd"/></svg><svg width="30" height="17" viewBox="0 0 30 17" id="icon-chevron-large-white" x="75" y="40"><path d="M29.43 16.618a1.3 1.3 0 0 0 0-1.84L15.824 1.175a1.301 1.301 0 0 0-1.84 0L.38 14.778a1.303 1.303 0 0 0 0 1.84c.51.51 1.333.51 1.84 0L14.906 3.935l12.683 12.683c.51.51 1.332.51 1.84 0z" fill="#FFF" fill-rule="evenodd"/></svg><svg width="17" height="30" viewBox="0 0 17 30" id="icon-chevron-medium-purple" x="35" y="60"><title>Shape</title><path d="M14.905 0c-.334 0-.666.127-.92.38L.38 13.986a1.303 1.303 0 0 0 0 1.84L13.986 29.43a1.301 1.301 0 0 0 1.84-1.84L3.14 14.904 15.826 2.222c.51-.51.51-1.332 0-1.84A1.295 1.295 0 0 0 14.905 0z" fill="#B70F7C" fill-rule="evenodd"/></svg><svg width="10" height="21" viewBox="0 0 10 21" id="icon-chevron-small-purple" x="52" y="60"><title>noun_16975_cc</title><path d="M.322 10.947l7.946 9.434c.33.392.917.445 1.312.118s.45-.906.12-1.298l-7.45-8.844L9.7 1.513a.919.919 0 0 0-.12-1.3.94.94 0 0 0-1.312.118L.322 9.766a.916.916 0 0 0 0 1.182z" fill="#B70F7C" fill-rule="evenodd"/></svg><svg width="12" height="7" viewBox="0 0 12 7" id="icon-down-triangle-purple" x="105" y="50"><title>Shape</title><path d="M5.283 4.557L.876.151a.512.512 0 0 0-.726 0c-.2.2-.2.525 0 .726L5.364 6.09c.2.2.525.2.726 0L11.303.876a.513.513 0 0 0-.726-.726l-4.32 4.407h-.974z" fill="#B70F7C" fill-rule="evenodd"/></svg><svg width="8" height="12" viewBox="0 0 8 12" id="icon-left-triangle-white" y="95"><path d="M0 12V0l7.5 6" fill="#FFF" fill-rule="evenodd"/></svg><svg width="50" height="40" viewBox="0 0 50 40" id="quotation" x="75"><title>quotations</title><defs><path id="ma" d="M22.669 39.616V0H0v39.616h22.669z"/><path id="mc" d="M22.669 39.616V0H0v39.616h22.669z"/></defs><g fill="none" fill-rule="evenodd"><mask id="mb" fill="#fff"><use xlink:href="#ma"/></mask><path d="M14.228.08c.913-.273 1.11.175.968.965-5.462 5.233-5.866 12.328-1.124 18.173 2.244 2.765 5.193 4.449 8.326 5.915 1.239 7.167-1.811 12.436-8.23 14.145-1.95.519-3.92.407-5.867-.102-4.45-2.061-7.48-5.28-8.146-10.31-.488-3.692.22-7.245 1.504-10.71C4.294 11.04 8.599 5.099 14.228.08" fill="#000" mask="url(#mb)"/><g transform="translate(26.496)"><mask id="md" fill="#fff"><use xlink:href="#mc"/></mask><path d="M14.228.08c.913-.273 1.11.175.968.965-5.462 5.233-5.866 12.328-1.124 18.173 2.244 2.765 5.193 4.449 8.326 5.915 1.239 7.167-1.811 12.436-8.23 14.145-1.95.519-3.92.407-5.867-.102-4.45-2.061-7.48-5.28-8.146-10.31-.488-3.692.22-7.245 1.504-10.71C4.294 11.04 8.599 5.099 14.228.08" fill="#000" mask="url(#md)"/></g></g></svg><svg width="15" height="19" viewBox="0 0 15 19" id="share-small" x="62" y="60"><title>Group</title><g fill="#630A5D" fill-rule="evenodd"><path d="M13.058 3.983h-1.414a.464.464 0 1 0 0 .927h1.414c.515 0 .95.637.95 1.39v10.197c0 .767-.626 1.39-1.395 1.39H2.387a1.394 1.394 0 0 1-1.394-1.39V6.301c0-.741.425-1.39.91-1.39h1.375a.464.464 0 1 0 0-.928H1.903c-1.014 0-1.84 1.04-1.84 2.318v10.196a2.323 2.323 0 0 0 2.324 2.318h10.226a2.323 2.323 0 0 0 2.324-2.318V6.301c0-1.278-.843-2.318-1.879-2.318z"/><path d="M5.834 2.965l1.201-1.197v10.75a.464.464 0 0 0 .93 0V1.767l1.2 1.197a.463.463 0 0 0 .658 0 .462.462 0 0 0 0-.655L7.829.32a.465.465 0 0 0-.658 0L5.177 2.31a.462.462 0 0 0 0 .655c.181.181.476.181.657 0z"/></g></svg></svg>